<svg aria-hidden="true" xmlns="http://www.w3.org/2000/svg" xmlns:xlink="http://www.w3.org/1999/xlink"><symbol fill="none" viewBox="0 0 23 13" id="arrow" xmlns="http://www.w3.org/2000/svg"><path d="M22.53 7.03a.75.75 0 0 0 0-1.06l-4.773-4.773a.75.75 0 0 0-1.06 1.06L20.939 6.5l-4.242 4.243a.75.75 0 0 0 1.06 1.06L22.53 7.03ZM0 6.5v.75h22v-1.5H0v.75Z" fill="currentColor"/></symbol><symbol fill="none" viewBox="0 0 13 23" id="dropdown" xmlns="http://www.w3.org/2000/svg"><path d="M11.904 21.35 1.92 11.363l9.985-9.986" stroke="currentColor" stroke-width="2"/></symbol><symbol fill="none" viewBox="0 0 24 24" id="tel" xmlns="http://www.w3.org/2000/svg"><path d="M6.62 10.79c1.44 2.83 3.76 5.14 6.59 6.59l2.2-2.2c.27-.27.67-.36 1.02-.24 1.12.37 2.33.57 3.57.57.55 0 1 .45 1 1V20c0 .55-.45 1-1 1-9.39 0-17-7.61-17-17 0-.55.45-1 1-1h3.5c.55 0 1 .45 1 1 0 1.25.2 2.45.57 3.57.11.35.03.74-.25 1.02l-2.2 2.2Z" fill="currentColor"/></symbol><symbol fill="none" viewBox="0 0 23 21" id="tg" xmlns="http://www.w3.org/2000/svg"><path d="M21.297.002a2.62 2.62 0 0 0-.825.2h-.004c-.252.102-1.45.615-3.274 1.392L10.663 4.39C5.976 6.396 1.368 8.371 1.368 8.371l.055-.021s-.317.106-.65.337a1.783 1.783 0 0 0-.518.51 1.513 1.513 0 0 0-.245.998c.08.65.494 1.039.791 1.254.301.217.588.32.588.32h.007l4.32 1.479c.194.632 1.317 4.384 1.587 5.249.16.516.314.839.508 1.085.092.126.204.231.335.316a.879.879 0 0 0 .218.095l-.044-.01c.013.003.024.014.033.017.036.01.06.014.105.021.684.21 1.233-.221 1.233-.221l.031-.025 2.551-2.361 4.275 3.334.098.042c.89.398 1.793.176 2.27-.214.48-.393.667-.896.667-.896l.031-.08 3.304-17.205c.094-.425.118-.822.014-1.208a1.617 1.617 0 0 0-.69-.942 1.634 1.634 0 0 0-.945-.243Zm-.09 1.844c-.003.057.008.05-.017.16v.009l-3.273 17.026c-.014.024-.038.077-.103.13-.07.056-.124.091-.412-.025l-5.229-4.075-3.159 2.926.664-4.308 8.544-8.094c.352-.333.234-.403.234-.403.025-.409-.532-.12-.532-.12L7.151 11.856l-.004-.018-5.164-1.767v-.004l-.013-.002.027-.011.028-.014.027-.01 9.298-3.981 6.53-2.797c1.078-.462 2.157-.92 3.238-1.376.072-.03.038-.03.09-.03Z" fill="currentColor"/></symbol><symbol fill="none" viewBox="0 0 24 24" id="wp" xmlns="http://www.w3.org/2000/svg"><path d="M20.503 3.492A11.847 11.847 0 0 0 16.628.9a11.895 11.895 0 0 0-4.58-.9C5.463 0 .096 5.34.096 11.892c0 2.1.555 4.14 1.592 5.94L0 24l6.332-1.656a12.002 12.002 0 0 0 5.716 1.452c6.585 0 11.952-5.34 11.952-11.892 0-3.18-1.242-6.168-3.497-8.412ZM12.048 21.78c-1.785 0-3.533-.48-5.065-1.38l-.362-.216-3.763.984L3.86 17.52l-.24-.372a9.875 9.875 0 0 1-1.52-5.256c0-5.448 4.462-9.888 9.937-9.888a9.858 9.858 0 0 1 7.02 2.904 9.813 9.813 0 0 1 2.158 3.208c.499 1.201.753 2.489.748 3.788.024 5.448-4.438 9.876-9.914 9.876Zm5.452-7.392c-.302-.144-1.773-.864-2.039-.972-.277-.096-.47-.144-.675.144-.205.3-.772.972-.94 1.164-.17.204-.35.228-.652.072-.302-.144-1.266-.468-2.4-1.476-.892-.792-1.483-1.764-1.664-2.064-.17-.3-.024-.456.132-.612.133-.132.302-.348.447-.516.144-.168.205-.3.301-.492.097-.204.048-.372-.024-.516a98.526 98.526 0 0 1-.917-2.208c-.24-.576-.494-.504-.675-.516h-.579c-.205 0-.519.072-.796.372-.265.3-1.037 1.02-1.037 2.484s1.073 2.88 1.218 3.072c.145.204 2.11 3.204 5.102 4.488.711.312 1.266.492 1.7.624.712.228 1.363.192 1.881.12.58-.084 1.773-.72 2.015-1.416.253-.696.253-1.284.168-1.416-.084-.132-.265-.192-.566-.336Z" fill="currentColor"/></symbol></svg>