<svg width="109" height="109" viewBox="0 0 109 109" fill="none" xmlns="http://www.w3.org/2000/svg">
<circle cx="54.5" cy="54.5" r="34.5" fill="#0092CB"/>
<circle cx="54.5" cy="54.5" r="44.5" stroke="#0092CB" stroke-opacity="0.2" stroke-width="20"/>
<path d="M52.0678 68.8526C53.0104 69.6179 53.9936 70.3174 55 71C56.0086 70.3264 56.9869 69.6099 57.9322 68.8526C59.508 67.5795 60.991 66.1991 62.3702 64.7216C65.5498 61.3008 69 56.3418 69 50.7751C69 48.9661 68.6379 47.1749 67.9343 45.5036C67.2307 43.8323 66.1995 42.3138 64.8995 41.0346C63.5995 39.7555 62.0561 38.7408 60.3576 38.0486C58.659 37.3563 56.8385 37 55 37C53.1615 37 51.341 37.3563 49.6424 38.0486C47.9439 38.7408 46.4005 39.7555 45.1005 41.0346C43.8005 42.3138 42.7693 43.8323 42.0657 45.5036C41.3621 47.1749 41 48.9661 41 50.7751C41 56.3418 44.4502 61.2993 47.6298 64.7216C49.009 66.1996 50.4919 67.579 52.0678 68.8526ZM55 55.7494C53.6592 55.7494 52.3733 55.2254 51.4252 54.2925C50.4771 53.3596 49.9444 52.0944 49.9444 50.7751C49.9444 49.4558 50.4771 48.1906 51.4252 47.2577C52.3733 46.3248 53.6592 45.8008 55 45.8008C56.3408 45.8008 57.6267 46.3248 58.5748 47.2577C59.5229 48.1906 60.0556 49.4558 60.0556 50.7751C60.0556 52.0944 59.5229 53.3596 58.5748 54.2925C57.6267 55.2254 56.3408 55.7494 55 55.7494Z" fill="white"/>
</svg>
