<svg width="280" height="246" viewBox="0 0 280 246" fill="none" xmlns="http://www.w3.org/2000/svg">
<mask id="mask0_347_1658" style="mask-type:luminance" maskUnits="userSpaceOnUse" x="-213" y="-247" width="493" height="493">
<path d="M-213 -247H280V246H-213V-247Z" fill="white"/>
</mask>
<g mask="url(#mask0_347_1658)">
<path d="M-162.956 57.3474L-162.87 57.6519C-162.826 57.7392 -160.217 68.826 -155.826 78.8264C-151.435 88.826 -144.13 99.7389 -144.044 99.8694L-143.913 100.087C-143.565 100.695 -142.261 102.478 -140.826 102.956C-139.565 103.347 -137.13 102.783 -135.869 102.261L-135.609 102.174C-135.304 102.087 -115.913 95.8259 -96.9998 89.3916L-90.4781 87.1306C-80.2173 83.5654 -70.7826 80.1307 -65.5652 77.8698C-63.9132 77.1302 -62.2171 76.261 -60.4785 75.217C-59.4346 74.6089 -58.3915 73.9127 -57.3043 73.2173L-56.9565 73.0002C-45.2608 65.0436 -33.3913 52.6517 -30.7826 49.8259C-39.8264 37.9563 -45.6959 23.5214 -47.0435 7.78212L-49.5656 6.95612C-52.5652 7.00018 -67.9568 7.39114 -81.391 10.1737L-82.1738 10.3475C-83.4349 10.6087 -84.696 10.9132 -85.913 11.2609L-86.8263 11.478C-89.435 12.2175 -91.8698 13.0435 -94.0434 14.0434C-98.6959 16.1737 -106.348 20.2173 -114.783 24.8257L-121.957 28.7828C-139.913 38.7824 -158.608 49.652 -158.913 49.8259L-159.174 49.9565C-160.217 50.4348 -162.435 51.913 -163 53.174C-163.609 54.5649 -163.13 56.7393 -162.956 57.3474ZM-59.739 117.522C-56.8259 108.739 -54.0867 100.913 -52.1302 96.2177C-51.5653 94.826 -50.8259 93.3911 -50.0439 91.9129C-53.3913 88.8259 -56.5656 85.5651 -59.5652 82.1737C-60.6956 82.7826 -61.8261 83.3474 -62.9133 83.8257C-67.6956 85.9128 -75.7395 88.8692 -84.6959 92.0002C-77.3915 101.522 -69.0432 110.087 -59.739 117.522ZM-69.1305 169.173L-69.217 169.435C-69.6521 170.522 -70.261 173.087 -69.826 174.435C-69.3477 175.87 -67.5218 177.13 -66.9128 177.478L-66.6525 177.652C-66.5652 177.696 -57.1304 184 -47.0868 188.347C-37.0439 192.652 -24.261 195.696 -24.1304 195.696L-23.9133 195.739C-23.2611 195.956 -21.0867 196.391 -19.6958 195.739C-18.478 195.174 -17.1305 193.086 -16.5216 191.826L-16.391 191.565C-16.2171 191.261 -5.43475 171.956 4.30444 153.652L6.04381 150.348C11.2611 140.522 15.9569 131.348 18.2611 126.043C18.9998 124.348 19.6086 122.521 20.2175 120.565L20.3482 120.131C20.6959 118.956 21.0003 117.739 21.2607 116.478C24.435 102.391 24.5656 84.8256 24.5656 81.5648L24.4783 81.3477C8.43454 79.5218 -6.21753 72.9561 -18.0438 63.1303L-18.4348 63.3042C-20.7823 65.5652 -33.304 77.8257 -41.2173 89.9131C-41.7388 90.7392 -42.2612 91.5652 -42.7828 92.3912C-44.0871 94.5648 -45.2176 96.6952 -46.0869 98.739C-48.2172 103.913 -51.4348 113.174 -54.7389 123.304L-57.3043 131.174C-63.3044 149.913 -69.0432 168.869 -69.1305 169.173ZM52.9563 149.174C48.6083 140.869 44.8259 133.348 42.7829 128.652C42.2173 127.348 41.6957 125.956 41.2174 124.478C38.5655 124.652 36.1307 124.739 33.7824 124.739C31.2611 124.739 28.6084 124.652 25.8259 124.478C25.3475 125.956 24.826 127.348 24.2612 128.695C22.2173 133.391 18.4349 140.869 14.1301 149.174C27.0869 150.826 40.0437 150.826 52.9563 149.174ZM60.7823 150L63.1306 154.435C72.7825 172.478 83.2171 191.217 83.391 191.522L83.5215 191.782C83.9998 192.826 85.3915 195.087 86.6958 195.696C88.0867 196.348 90.2611 195.913 90.9133 195.696L91.1736 195.652C91.3042 195.609 104.087 192.609 114.131 188.304C124.174 184 133.608 177.696 133.696 177.608L133.957 177.435C134.391 177.174 136.348 175.87 136.869 174.391C137.304 173.131 136.783 170.696 136.261 169.391L136.174 169.13C136.087 168.783 129.957 148.521 123.695 129.174L121.696 123C118.391 112.956 115.26 103.782 113.13 98.6957C112.435 96.9996 111.522 95.217 110.521 93.4344L110.392 93.174C109.783 92.13 109.131 91.0869 108.435 90.0437C100.522 77.913 87.8696 65.4778 85.5221 63.2169H85.4781C73.5652 73.0867 58.7826 79.6083 42.565 81.3477L42.5217 81.4783C42.5217 84.7391 42.6523 102.304 45.8258 116.391C46.1303 117.652 46.4347 118.913 46.7824 120.087L46.913 120.565C47.4778 122.478 48.0867 124.304 48.8262 125.956C51.0431 131.261 55.6523 140.304 60.7823 150ZM152.174 92.1741C143 88.9565 134.783 85.9561 129.957 83.8257C128.957 83.3915 127.957 82.9132 126.956 82.3908C123.913 85.8263 120.696 89.1304 117.261 92.2606C117.956 93.6082 118.609 94.9125 119.13 96.2177C121.087 100.957 123.913 108.956 126.87 117.87C136.261 110.391 144.783 101.783 152.174 92.1741ZM164.609 89.5214C183.304 95.9132 202.304 102 202.609 102.087L202.869 102.174C204.174 102.739 206.565 103.304 207.869 102.869C209.304 102.391 210.609 100.609 210.956 100.043L211.087 99.8262C211.174 99.7389 218.435 88.7827 222.87 78.7823C227.261 68.7827 229.87 57.7392 229.913 57.6086L230 57.3041C230.218 56.652 230.696 54.4784 230.044 53.0867C229.478 51.8697 227.435 50.478 226.217 49.8691L225.957 49.7394C225.652 49.5647 207.609 39.0435 189.956 29.217L182.348 24.9996C173.696 20.2606 165.826 16.0872 161.043 13.9128C158.956 12.9562 156.566 12.1302 154.043 11.4347L153.479 11.2609C152.261 10.9132 151 10.6087 149.739 10.3475C136.043 7.30464 119.739 6.8696 116.652 6.82634L114.696 7.47849C113.348 23.3908 107.391 38.0437 98.1736 49.9997C101.348 53.3479 112.782 65.2174 124.087 72.8696L124.739 73.3046C125.739 73.9568 126.739 74.6089 127.739 75.1738C129.391 76.1304 131.044 77.0437 132.608 77.7392C137.826 80.0001 147.348 83.478 157.696 87.0433L164.609 89.5214ZM157.652 5.78236C159.782 6.43452 161.826 7.2173 163.695 8.04332C168.087 10.0431 174.913 13.6084 182.521 17.7393C183.174 12.0436 183.521 6.34801 183.521 0.695648C183.521 -5.65213 183.087 -12.1305 182.261 -18.5216C173.783 -14.2609 166.087 -10.5217 161.26 -8.56525C160.087 -8.08693 158.826 -7.65271 157.521 -7.21765C157.696 -4.43515 157.783 -1.82648 157.783 0.695648C157.783 2.30443 157.739 3.95647 157.652 5.78236ZM224.87 -48.1309L225.13 -48.2607C226.434 -48.8264 228.521 -50.1307 229.087 -51.3477C229.783 -52.7393 229.392 -54.913 229.174 -55.5651L229.13 -55.8263C229.087 -55.9569 226.305 -68.7831 222.174 -78.9132C218.044 -89.0001 211.913 -98.5655 211.826 -98.652L211.696 -98.9132C211.391 -99.5221 210.13 -101.348 208.695 -101.87C208.348 -102 207.913 -102.043 207.435 -102.043C206.174 -102.043 204.652 -101.696 203.739 -101.348L203.478 -101.261C203.13 -101.174 182.435 -95.3047 162.826 -89.3479L155.783 -87.1742C146.174 -84.2179 137.565 -81.3913 132.608 -79.4348C130.392 -78.5655 128.043 -77.3477 125.696 -75.9569C124.826 -75.4353 123.957 -74.9129 123.087 -74.3481C111.087 -66.6086 98.9564 -54.6958 96.6954 -52.4349L96.1306 -51.2612C105.913 -39.5655 112.435 -25.0432 114.348 -9.13087C117.913 -9.08681 134.696 -8.95703 148.522 -11.6955L149.522 -11.9134C150.783 -12.1738 152 -12.4782 153.217 -12.7827L153.913 -12.9565C155.652 -13.4348 157.261 -14.0005 158.739 -14.6086C164.13 -16.8262 173.434 -21.3914 183.392 -26.4348L187.174 -28.3481C205.479 -37.6955 224.565 -47.9563 224.87 -48.1309ZM122.652 -119.653C120.739 -111.652 118.913 -104.652 117.521 -100.218C116.783 -97.9566 115.826 -95.565 114.652 -93.1302C118.261 -90 121.739 -86.6086 125.044 -83.0001C126.782 -83.9134 128.478 -84.7827 130.174 -85.4349C134.783 -87.2608 142.348 -89.7396 150.87 -92.4348C142.695 -102.696 133.261 -111.826 122.652 -119.653ZM128.131 -174.391L128.174 -174.652C128.565 -176 128.913 -178.435 128.348 -179.696C127.739 -181.087 125.782 -182.174 125.218 -182.478L125 -182.609C124.87 -182.652 113.261 -188.783 102.826 -192.13C92.4347 -195.435 81.1741 -196.913 81.0435 -196.913L80.739 -196.957C80.0869 -197.087 77.8692 -197.348 76.5216 -196.566C75.3479 -195.913 74.1741 -193.739 73.7391 -192.391L73.6526 -192.13C73.522 -191.827 65.0439 -173.044 57.1738 -154.565L54.6084 -148.565C50.391 -138.522 46.6086 -129.217 44.7827 -123.826C44.3476 -122.522 43.9566 -121.131 43.6522 -119.653L43.5649 -119.13C43.3045 -117.913 43.0866 -116.695 42.8694 -115.435L42.7388 -114.565C40.8264 -101.305 41.9128 -85.0439 42.3046 -79.9564C57.9565 -78.3043 72.3042 -72.1736 83.9998 -62.8695L86.7823 -64.435C88.7829 -66.696 98.7392 -78.3917 105.652 -90.2171L105.826 -90.4783C106.478 -91.6088 107.087 -92.7393 107.696 -93.8697C109.217 -96.7396 110.435 -99.5654 111.304 -102.217C112.87 -107.131 115 -115.609 117.218 -125.044L119 -132.609C123.566 -152.696 128.043 -174.087 128.131 -174.391ZM19.6087 -148.305C23.3911 -139.218 26.696 -130.957 28.3913 -125.87C28.6957 -125 28.9569 -124.087 29.174 -123.174C32.261 -123.304 34.9561 -123.304 37.826 -123.217C38.0872 -124.13 38.3475 -125 38.6087 -125.87C40.304 -130.957 43.609 -139.261 47.4346 -148.348C37.9133 -149.261 29.1308 -149.261 19.6087 -148.305ZM12.3475 -148.652L8.95694 -156.652C1.34808 -174.391 -6.47789 -191.827 -6.60849 -192.13L-6.69582 -192.391C-7.08679 -193.479 -8.30463 -195.869 -9.52162 -196.566C-10.8259 -197.348 -13.0436 -197.087 -13.6958 -196.957L-14.0002 -196.913C-14.13 -196.913 -25.3915 -195.435 -35.7829 -192.13C-46.2175 -188.783 -57.8258 -182.695 -57.9564 -182.609L-58.1736 -182.522C-58.7824 -182.261 -60.7389 -181.131 -61.3478 -179.739C-61.9135 -178.522 -61.5649 -176.043 -61.174 -174.739L-61.0866 -174.435C-61.0001 -174.087 -56.5656 -152.782 -51.9564 -132.739L-49.9133 -124C-47.783 -115 -45.7391 -107 -44.261 -102.261C-43.4349 -99.6527 -42.1739 -96.8694 -40.6957 -94.0003L-40.4786 -93.6086C-39.8697 -92.4781 -39.2608 -91.3917 -38.6086 -90.2612C-31.696 -78.4349 -21.7389 -66.7825 -19.7824 -64.5216L-16.6954 -62.783C-5.04381 -72.0439 9.17404 -78.2178 24.6954 -79.9564C25.0872 -84.9133 26.1736 -101.174 24.3044 -114.522L24.1738 -115.478C23.9999 -116.74 23.7396 -117.957 23.5217 -119.13C23.5217 -119.218 23.4784 -119.304 23.4784 -119.391L23.4351 -119.609C23.0866 -121.131 22.6956 -122.565 22.2605 -123.913C20.3914 -129.217 16.609 -138.565 12.3475 -148.652ZM-83.3916 -92.3483C-75.0433 -89.7396 -67.6524 -87.2608 -63.1305 -85.4781C-61.3478 -84.7827 -59.5219 -83.8694 -57.6519 -82.8695C-54.3911 -86.3915 -50.9997 -89.7396 -47.4785 -92.8266C-48.6955 -95.3479 -49.7395 -97.8701 -50.5215 -100.218C-51.8698 -104.566 -53.6524 -111.435 -55.5648 -119.261C-66.0003 -111.522 -75.3477 -102.478 -83.3916 -92.3483ZM-47.2606 -2.5219C-47.9568 -2.5219 -49 -2.47865 -50.4349 -2.47865C-56.5215 -2.47865 -68.4351 -2.7831 -79.5651 -4.65225C-79.6525 -2.7831 -79.739 -1.00046 -79.739 0.695648C-79.739 1.52167 -79.739 2.30443 -79.6958 3.13045C-65.087 0.478546 -49.9566 0.347946 -49.0432 0.347946H-48.5217L-47.348 0.738922V0.695648C-47.348 -0.391556 -47.3047 -1.43468 -47.2606 -2.5219ZM93.8696 55.1738C92.7392 56.4349 91.5214 57.6519 90.3044 58.8256C93.1742 61.6089 103.652 72.0003 111.609 83.2177C113.826 81.1306 115.913 78.9561 117.956 76.7393C107.434 69.1304 97.5655 59.0435 93.8696 55.1738ZM-24.5654 -56.565L-24.1737 -56.174L-24.1304 -56.0434C-23.435 -56.7829 -22.6955 -57.4783 -21.9568 -58.1738L-23.9998 -59.3483L-24.3475 -59.7393C-24.9132 -60.3914 -34.5218 -71.2179 -42.2172 -83.4784C-44.4348 -81.4786 -46.5652 -79.3915 -48.609 -77.2171C-36.3044 -68.4786 -25.2176 -57.2171 -24.5654 -56.565ZM33.7824 73.565C73.9562 73.565 106.653 40.8694 106.653 0.695648C106.653 -39.4781 73.9562 -72.1304 33.7824 -72.1304C-6.39137 -72.1304 -39.0437 -39.4349 -39.0437 0.695648C-39.0437 40.8694 -6.39137 73.565 33.7824 73.565ZM35.9568 -112.783C34.3481 -112.827 32.7393 -112.827 31.0872 -112.783C32.5222 -100.087 31.7394 -86.087 31.3044 -80.3914C32.1304 -80.4347 32.9564 -80.4347 33.8265 -80.4347C34.4779 -80.4347 35.1308 -80.3914 35.783 -80.3914C35.3047 -86.087 34.4778 -100.087 35.9568 -112.783ZM91.6087 -56.565C92.2609 -57.2171 103.521 -68.6957 116.043 -77.435C113.956 -79.6519 111.739 -81.7831 109.478 -83.7828C101.739 -71.3917 91.9997 -60.3482 91.3916 -59.696L91.0439 -59.3042L89.3477 -58.3476C90.0432 -57.6955 90.7394 -57.0433 91.4348 -56.3479L91.6087 -56.565ZM115.565 0.347946H116.087C117 0.347946 132.522 0.478531 147.261 3.21696C147.261 2.34769 147.305 1.47841 147.305 0.65239C147.305 -1.08699 147.261 -2.86963 147.131 -4.78285C135.826 -2.82635 123.652 -2.5219 117.435 -2.5219C116.348 -2.5219 115.478 -2.5219 114.783 -2.5219C114.826 -1.47876 114.869 -0.478088 114.869 0.565048L115.565 0.347946ZM28.3913 114.086C30.3045 114.174 32.0871 114.217 33.7824 114.217C35.3047 114.217 36.9134 114.174 38.6087 114.086C36.0433 100.391 35.9128 85.5219 35.9128 81.7827C35.2173 81.7827 34.4778 81.826 33.7824 81.826C32.8699 81.826 31.9998 81.7827 31.0872 81.7827C31.0872 85.5219 30.9567 100.391 28.3913 114.086ZM-50.5655 76.4781C-48.5649 78.6958 -46.4778 80.8261 -44.3475 82.8691C-36.1306 71.3481 -25.3915 60.8694 -22.9999 58.5652C-24.2177 57.3474 -25.3915 56.1304 -26.5652 54.8693C-29.9134 58.4346 -39.8697 68.6521 -50.5655 76.4781ZM-89.9565 -7.04379C-91.4347 -7.52209 -92.9129 -8.00041 -94.2605 -8.56525C-98.9562 -10.5217 -106.434 -14.1303 -114.739 -18.2612C-115.566 -11.9567 -115.957 -5.60887 -115.957 0.695648C-115.957 6.21742 -115.609 11.8257 -115 17.4348C-107.609 13.4345 -101 9.95654 -96.6953 8.00006C-94.6955 7.0867 -92.4787 6.26068 -90.1304 5.56526C-90.2177 3.82588 -90.261 2.17383 -90.261 0.65239C-90.2177 -1.73915 -90.1304 -4.30453 -89.9565 -7.04379ZM-95.4783 -89.2173C-115.131 -95.2173 -136.044 -101.131 -136.392 -101.217L-136.652 -101.305C-137.739 -101.739 -140.348 -102.305 -141.652 -101.826C-143.087 -101.305 -144.304 -99.478 -144.609 -98.8699L-144.782 -98.6087C-144.826 -98.5222 -150.956 -89.0002 -155.13 -78.87C-159.261 -68.739 -162.043 -55.9128 -162.087 -55.7831L-162.13 -55.5219C-162.261 -55.0435 -162.739 -52.7393 -162.043 -51.3477C-161.435 -50.1307 -159.348 -48.8264 -158.087 -48.2607L-157.826 -48.1309C-157.522 -47.9563 -138.261 -37.6522 -119.913 -28.2607L-115.521 -26.0439C-105.87 -21.1743 -96.9565 -16.783 -91.7392 -14.6526C-90.0439 -13.9564 -88.1739 -13.3483 -86.1742 -12.8259L-85.6518 -12.6961C-84.4348 -12.3917 -83.2178 -12.0872 -81.9567 -11.8261L-81.0433 -11.6522C-67.0867 -8.95702 -50.3043 -9.08681 -47.1308 -9.17415L-46.739 -9.30472C-44.8258 -24.9567 -38.4348 -39.261 -28.8694 -50.8694L-29.6089 -52.4349C-31.8698 -54.6958 -43.8259 -66.4348 -55.7395 -74.1742C-56.6088 -74.739 -57.4781 -75.2606 -58.3482 -75.783C-60.8263 -77.2612 -63.261 -78.5223 -65.5652 -79.4348C-70.5655 -81.3913 -79.348 -84.2612 -89.0432 -87.2608L-95.4783 -89.2173ZM-168.956 50.478C-167.304 46.8262 -163.044 44.5221 -162.043 44.087C-160.087 42.9565 -142.13 32.5219 -124.87 22.9133C-125.87 15.6089 -126.434 8.13066 -126.434 0.738922C-126.434 -7.17438 -125.782 -15.2175 -124.565 -23.2173C-141.652 -31.9566 -158.87 -41.2175 -160.826 -42.2606C-161.826 -42.6957 -166.174 -44.826 -167.957 -48.4346C-169.739 -52.0872 -168.739 -56.3046 -168.478 -57.2612C-168.174 -58.6521 -165.391 -71.0432 -161.217 -81.348C-157.044 -91.5215 -151.174 -100.87 -150.391 -102.043C-149.913 -102.957 -147.695 -106.609 -143.913 -108C-140.131 -109.348 -135.521 -107.87 -134.522 -107.479C-132.348 -106.87 -112.826 -101.305 -94.0866 -95.6524C-83.9565 -109.087 -71.8698 -120.739 -58.1736 -130.392C-62.6522 -149.869 -67.0435 -170.696 -67.5218 -172.956C-67.8262 -174 -68.9999 -178.696 -67.3911 -182.392C-65.7391 -186.131 -61.8694 -188.043 -60.9568 -188.478C-59.6958 -189.131 -48.3911 -195 -37.8259 -198.391C-27.348 -201.74 -16.435 -203.218 -15.0001 -203.392C-14.0002 -203.609 -9.73874 -204.261 -6.2608 -202.261C-2.78287 -200.261 -1.00024 -195.74 -0.608459 -194.739C0.304092 -192.782 7.95622 -175.696 15.3047 -158.435C21.6084 -159.174 27.7824 -159.565 33.7392 -159.565C39.5221 -159.565 45.5654 -159.174 51.652 -158.522C59.0438 -175.74 66.6959 -192.782 67.5651 -194.739C67.9561 -195.74 69.7387 -200.261 73.2175 -202.261C76.7387 -204.261 80.9129 -203.609 81.9568 -203.392C83.3477 -203.218 94.3047 -201.74 104.783 -198.391C115.348 -195 126.652 -189.131 127.913 -188.478C128.826 -188.087 132.696 -186.131 134.348 -182.392C135.957 -178.696 134.783 -174 134.478 -172.956C134 -170.696 129.695 -150.131 125.218 -130.739C139.044 -121.087 151.261 -109.348 161.478 -95.783C180.043 -101.435 199.305 -106.87 201.478 -107.479C202.478 -107.87 207.087 -109.348 210.87 -108C214.652 -106.609 216.87 -102.957 217.348 -102.043C218.13 -100.826 224 -91.5215 228.174 -81.348C232.391 -71.0873 235.174 -58.6521 235.435 -57.2612C235.695 -56.3046 236.696 -52.0872 234.913 -48.4346C233.131 -44.826 228.783 -42.6957 227.783 -42.2606C225.87 -41.2175 208.957 -32.1737 192 -23.4785C193.261 -15.3913 193.913 -7.21764 193.913 0.738922C193.913 8.21718 193.348 15.7828 192.304 23.2169C209.435 32.739 227.043 42.9565 229 44.1302C229.956 44.6086 234.261 46.8695 235.913 50.5213C237.565 54.2172 236.435 58.3481 236.13 59.3039C235.783 60.6956 233.174 71.3914 228.739 81.4783C224.261 91.6517 217.261 102.261 216.478 103.435C216 104.261 213.652 107.913 209.739 109.174C208.739 109.478 207.696 109.609 206.652 109.609C203.739 109.609 201.087 108.609 200.348 108.304C198.261 107.652 180.305 101.869 162.435 95.7393C153.261 108.13 142.435 119.13 130.174 128.391C136 146.522 141.609 165 142.261 167.13C142.652 168.13 144.261 172.739 142.957 176.522C141.652 180.348 138 182.609 137.13 183.13C135.957 183.913 126.739 189.956 116.609 194.304C106.391 198.696 94.0435 201.695 92.6518 202C92.1302 202.174 90.4782 202.609 88.5217 202.609C87.0435 202.609 85.3915 202.391 83.826 201.652C80.1742 199.957 77.9998 195.609 77.5215 194.609C76.4351 192.695 67.0436 175.783 58.043 158.957C49.8694 160.217 41.6957 160.869 33.6518 160.869C25.4781 160.869 17.1306 160.174 8.78223 158.87C-0.217484 175.739 -9.69548 192.652 -10.7394 194.565C-11.2177 195.565 -13.3913 199.869 -17.0431 201.609C-18.6086 202.347 -20.2607 202.565 -21.7389 202.565C-23.7395 202.565 -25.3482 202.13 -25.8698 201.956C-27.2606 201.652 -39.6085 198.652 -49.826 194.261C-59.9129 189.913 -69.1738 183.87 -70.3475 183.087C-71.2609 182.565 -74.8694 180.304 -76.1737 176.478C-77.4781 172.652 -75.8693 168.087 -75.4783 167.086C-74.8262 164.956 -69.1738 146.305 -63.3043 128.043C-75.391 118.826 -86.1301 107.913 -95.2171 95.5655C-113.217 101.695 -131.478 107.565 -133.565 108.261C-134.304 108.565 -137 109.565 -139.87 109.565C-140.913 109.565 -141.957 109.435 -142.956 109.13C-146.826 107.869 -149.174 104.217 -149.652 103.391C-150.435 102.217 -157.435 91.6085 -161.913 81.435C-166.348 71.3481 -168.957 60.6523 -169.304 59.2606C-169.521 58.304 -170.609 54.1739 -168.956 50.478Z" fill="#D0D9DC"/>
<path d="M33.5225 14.2607C41.6529 14.2607 48.2611 7.65248 48.2611 -0.522017C48.2611 -8.65244 41.6529 -15.2606 33.5225 -15.2606C25.3921 -15.2606 18.7399 -8.65244 18.7399 -0.522017C18.7399 7.65248 25.348 14.2607 33.5225 14.2607ZM33.5225 -19.478C44.0004 -19.478 52.4785 -10.9566 52.4785 -0.522017C52.4785 9.95668 43.9571 18.4348 33.5225 18.4348C23.0438 18.4348 14.5657 9.91342 14.5657 -0.522017C14.5224 -10.9566 23.0438 -19.478 33.5225 -19.478Z" fill="#D0D9DC"/>
<path d="M33.5225 -12.0869C39.9135 -12.0869 45.1309 -6.86958 45.1309 -0.477725C45.1309 5.91332 39.9135 11.1306 33.5225 11.1306C27.1306 11.1306 21.9133 5.91332 21.9133 -0.477725C21.9133 -6.91284 27.1306 -12.0869 33.5225 -12.0869Z" fill="#D0D9DC"/>
<path d="M33.522 226C158.435 226 260.043 124.391 260.043 -0.522049C260.043 -125.435 158.435 -227.043 33.522 -227.043C-91.3914 -227.043 -193 -125.435 -193 -0.522049C-193 124.391 -91.3914 226 33.522 226ZM33.522 -247C169.435 -247 280 -136.435 280 -0.522049C280 135.391 169.435 245.957 33.522 245.957C-102.391 245.957 -212.957 135.391 -212.957 -0.522049C-212.957 -136.435 -102.391 -247 33.522 -247Z" fill="#D0D9DC"/>
</g>
</svg>
