<svg width="310" height="281" viewBox="0 0 310 281" fill="none" xmlns="http://www.w3.org/2000/svg">
<g clip-path="url(#clip0_347_1667)">
<mask id="mask0_347_1667" style="mask-type:luminance" maskUnits="userSpaceOnUse" x="30" y="35" width="493" height="493">
<path d="M523 528L30 528L30.0001 35L523 35.0001L523 528Z" fill="white"/>
</mask>
<g mask="url(#mask0_347_1667)">
<path d="M472.956 223.653L472.87 223.348C472.826 223.261 470.217 212.174 465.826 202.174C461.435 192.174 454.13 181.261 454.044 181.131L453.913 180.913C453.565 180.305 452.261 178.522 450.826 178.044C449.565 177.653 447.13 178.217 445.869 178.739L445.609 178.826C445.304 178.913 425.913 185.174 407 191.608L400.478 193.869C390.217 197.435 380.783 200.869 375.565 203.13C373.913 203.87 372.217 204.739 370.479 205.783C369.435 206.391 368.392 207.087 367.304 207.783L366.957 208C355.261 215.956 343.391 228.348 340.783 231.174C349.826 243.044 355.696 257.479 357.043 273.218L359.566 274.044C362.565 274 377.957 273.609 391.391 270.826L392.174 270.653C393.435 270.391 394.696 270.087 395.913 269.739L396.826 269.522C399.435 268.783 401.87 267.957 404.043 266.957C408.696 264.826 416.348 260.783 424.783 256.174L431.957 252.217C449.913 242.218 468.608 231.348 468.913 231.174L469.174 231.044C470.217 230.565 472.435 229.087 473 227.826C473.609 226.435 473.13 224.261 472.956 223.653ZM369.739 163.478C366.826 172.261 364.087 180.087 362.13 184.782C361.565 186.174 360.826 187.609 360.044 189.087C363.391 192.174 366.566 195.435 369.565 198.826C370.696 198.217 371.826 197.653 372.913 197.174C377.696 195.087 385.74 192.131 394.696 189C387.392 179.479 379.043 170.913 369.739 163.478ZM379.131 111.827L379.217 111.565C379.652 110.478 380.261 107.914 379.826 106.565C379.348 105.13 377.522 103.87 376.913 103.522L376.653 103.348C376.565 103.304 367.13 96.9998 357.087 92.6526C347.044 88.3478 334.261 85.3041 334.131 85.3041L333.913 85.2609C333.261 85.0437 331.087 84.6087 329.696 85.2609C328.478 85.8265 327.131 87.9136 326.522 89.1738L326.391 89.435C326.217 89.7395 315.435 109.044 305.696 127.348L303.956 130.652C298.739 140.478 294.043 149.652 291.739 154.957C291 156.652 290.391 158.479 289.783 160.435L289.652 160.869C289.304 162.044 289 163.261 288.739 164.522C285.565 178.609 285.434 196.174 285.434 199.435L285.522 199.652C301.566 201.478 316.218 208.044 328.044 217.87L328.435 217.696C330.782 215.435 343.304 203.174 351.217 191.087C351.739 190.261 352.261 189.435 352.783 188.609C354.087 186.435 355.218 184.305 356.087 182.261C358.217 177.087 361.435 167.826 364.739 157.696L367.304 149.826C373.304 131.087 379.043 112.131 379.131 111.827ZM257.044 131.827C261.392 140.131 265.174 147.652 267.217 152.348C267.783 153.652 268.304 155.044 268.783 156.522C271.435 156.348 273.869 156.261 276.218 156.261C278.739 156.261 281.392 156.348 284.174 156.522C284.653 155.044 285.174 153.652 285.739 152.305C287.783 147.609 291.565 140.131 295.87 131.827C282.913 130.174 269.956 130.174 257.044 131.827ZM249.218 131L246.869 126.565C237.218 108.522 226.783 89.7827 226.609 89.4783L226.479 89.2179C226 88.1739 224.609 85.913 223.304 85.3041C221.913 84.6519 219.739 85.087 219.087 85.3041L218.826 85.3482C218.696 85.3914 205.913 88.391 195.869 92.6958C185.826 96.9997 176.392 103.304 176.304 103.392L176.043 103.565C175.609 103.826 173.652 105.13 173.131 106.609C172.696 107.869 173.217 110.304 173.739 111.609L173.826 111.87C173.913 112.217 180.043 132.479 186.305 151.826L188.305 158C191.609 168.044 194.74 177.218 196.87 182.304C197.565 184 198.478 185.783 199.479 187.566L199.608 187.826C200.217 188.87 200.869 189.913 201.565 190.956C209.478 203.087 222.13 215.522 224.478 217.783L224.522 217.783C236.435 207.913 251.217 201.392 267.435 199.652L267.478 199.522C267.478 196.261 267.348 178.696 264.174 164.609C263.87 163.348 263.565 162.087 263.218 160.913L263.087 160.435C262.522 158.522 261.913 156.696 261.174 155.044C258.957 149.739 254.348 140.696 249.218 131ZM157.826 188.826C167 192.043 175.217 195.044 180.043 197.174C181.043 197.609 182.043 198.087 183.044 198.609C186.087 195.174 189.304 191.87 192.739 188.739C192.044 187.392 191.391 186.088 190.87 184.782C188.913 180.043 186.087 172.044 183.13 163.13C173.739 170.609 165.218 179.217 157.826 188.826ZM145.391 191.479C126.696 185.087 107.696 179 107.391 178.913L107.131 178.826C105.826 178.261 103.435 177.696 102.131 178.131C100.696 178.609 99.3914 180.391 99.0437 180.957L98.9131 181.174C98.8258 181.261 91.5655 192.217 87.1301 202.218C82.7388 212.217 80.1302 223.261 80.0869 223.391L80.0004 223.696C79.7824 224.348 79.3041 226.522 79.9563 227.913C80.5219 229.13 82.5649 230.522 83.7828 231.131L84.0431 231.261C84.3476 231.435 102.391 241.956 120.044 251.783L127.652 256C136.304 260.739 144.174 264.913 148.957 267.087C151.044 268.044 153.435 268.87 155.957 269.565L156.521 269.739C157.739 270.087 159 270.391 160.261 270.652C173.957 273.695 190.261 274.13 193.348 274.174L195.304 273.522C196.652 257.609 202.609 242.956 211.826 231C208.652 227.652 197.218 215.783 185.913 208.13L185.261 207.695C184.261 207.043 183.261 206.391 182.261 205.826C180.609 204.87 178.956 203.956 177.392 203.261C172.174 201 162.652 197.522 152.304 193.957L145.391 191.479ZM152.348 275.218C150.218 274.565 148.174 273.783 146.305 272.957C141.913 270.957 135.087 267.392 127.479 263.261C126.826 268.956 126.479 274.652 126.479 280.304C126.479 286.652 126.913 293.131 127.739 299.522C136.217 295.261 143.913 291.522 148.74 289.565C149.913 289.087 151.174 288.653 152.479 288.218C152.304 285.435 152.218 282.826 152.218 280.304C152.218 278.696 152.261 277.044 152.348 275.218ZM85.1303 329.131L84.87 329.261C83.5656 329.826 81.4785 331.131 80.9129 332.348C80.2175 333.739 80.6084 335.913 80.8264 336.565L80.8696 336.826C80.9129 336.957 83.6954 349.783 87.8263 359.913C91.9564 370 98.0871 379.565 98.1736 379.652L98.3042 379.913C98.6087 380.522 99.8697 382.348 101.305 382.87C101.652 383 102.087 383.043 102.565 383.043C103.826 383.043 105.348 382.696 106.261 382.348L106.522 382.261C106.87 382.174 127.565 376.305 147.174 370.348L154.217 368.174C163.826 365.218 172.435 362.391 177.392 360.435C179.608 359.566 181.957 358.348 184.304 356.957C185.174 356.435 186.044 355.913 186.913 355.348C198.913 347.609 211.044 335.696 213.305 333.435L213.869 332.261C204.087 320.565 197.565 306.043 195.652 290.131C192.087 290.087 175.304 289.957 161.478 292.695L160.479 292.913C159.217 293.174 158 293.478 156.783 293.783L156.087 293.957C154.348 294.435 152.739 295 151.261 295.609C145.87 297.826 136.566 302.391 126.608 307.435L122.826 309.348C104.521 318.696 85.4348 328.956 85.1303 329.131ZM187.348 400.653C189.261 392.652 191.087 385.652 192.479 381.218C193.217 378.957 194.174 376.565 195.348 374.13C191.739 371 188.261 367.609 184.956 364C183.218 364.913 181.522 365.783 179.826 366.435C175.217 368.261 167.652 370.74 159.13 373.435C167.305 383.696 176.739 392.826 187.348 400.653ZM181.869 455.391L181.826 455.652C181.435 457 181.087 459.435 181.652 460.696C182.261 462.087 184.218 463.174 184.782 463.478L185 463.609C185.13 463.652 196.739 469.783 207.174 473.13C217.565 476.435 228.826 477.913 228.957 477.913L229.261 477.957C229.913 478.087 232.131 478.348 233.478 477.566C234.652 476.913 235.826 474.739 236.261 473.391L236.347 473.13C236.478 472.827 244.956 454.044 252.826 435.565L255.392 429.565C259.609 419.522 263.391 410.217 265.217 404.826C265.652 403.522 266.043 402.131 266.348 400.653L266.435 400.13C266.696 398.913 266.913 397.696 267.131 396.435L267.261 395.565C269.174 382.305 268.087 366.044 267.695 360.956C252.043 359.304 237.696 353.174 226 343.87L223.218 345.435C221.217 347.696 211.261 359.392 204.348 371.217L204.174 371.478C203.522 372.609 202.913 373.739 202.304 374.87C200.783 377.74 199.565 380.565 198.696 383.217C197.13 388.131 195 396.609 192.782 406.044L191 413.609C186.434 433.696 181.957 455.087 181.869 455.391ZM290.391 429.305C286.609 420.218 283.304 411.957 281.609 406.87C281.304 406 281.043 405.087 280.826 404.174C277.739 404.304 275.044 404.304 272.174 404.217C271.913 405.131 271.652 406 271.391 406.87C269.696 411.957 266.391 420.261 262.565 429.348C272.087 430.261 280.869 430.261 290.391 429.305ZM297.652 429.652L301.043 437.652C308.652 455.391 316.478 472.827 316.608 473.13L316.696 473.391C317.087 474.479 318.305 476.869 319.522 477.566C320.826 478.348 323.044 478.087 323.696 477.957L324 477.913C324.13 477.913 335.391 476.435 345.783 473.13C356.217 469.783 367.826 463.695 367.956 463.609L368.174 463.522C368.782 463.261 370.739 462.131 371.348 460.739C371.913 459.522 371.565 457.043 371.174 455.739L371.087 455.435C371 455.087 366.566 433.782 361.956 413.739L359.913 405C357.783 396 355.739 388 354.261 383.261C353.435 380.653 352.174 377.869 350.696 375L350.479 374.609C349.87 373.478 349.261 372.392 348.609 371.261C341.696 359.435 331.739 347.783 329.782 345.522L326.695 343.783C315.044 353.044 300.826 359.218 285.305 360.956C284.913 365.913 283.826 382.174 285.696 395.522L285.826 396.479C286 397.74 286.26 398.957 286.478 400.13C286.478 400.218 286.522 400.304 286.522 400.392L286.565 400.609C286.913 402.131 287.304 403.565 287.739 404.913C289.609 410.217 293.391 419.565 297.652 429.652ZM393.392 373.348C385.043 370.74 377.652 368.261 373.131 366.478C371.348 365.783 369.522 364.869 367.652 363.87C364.391 367.392 361 370.74 357.479 373.827C358.696 376.348 359.74 378.87 360.521 381.218C361.87 385.566 363.652 392.435 365.565 400.261C376 392.522 385.348 383.479 393.392 373.348ZM357.261 283.522C357.957 283.522 359 283.479 360.435 283.479C366.522 283.479 378.435 283.783 389.565 285.652C389.653 283.783 389.739 282.001 389.739 280.304C389.739 279.478 389.739 278.696 389.696 277.87C375.087 280.522 359.957 280.652 359.043 280.652L358.522 280.652L357.348 280.261L357.348 280.304C357.348 281.392 357.305 282.435 357.261 283.522ZM216.13 225.826C217.261 224.565 218.479 223.348 219.696 222.174C216.826 219.391 206.348 209 198.391 197.782C196.174 199.869 194.087 202.044 192.044 204.261C202.566 211.87 212.435 221.957 216.13 225.826ZM334.565 337.565L334.174 337.174L334.13 337.043C333.435 337.783 332.696 338.478 331.957 339.174L334 340.348L334.348 340.739C334.913 341.391 344.522 352.218 352.217 364.478C354.435 362.479 356.565 360.392 358.609 358.217C346.304 349.479 335.218 338.217 334.565 337.565ZM276.218 207.435C236.044 207.435 203.348 240.131 203.348 280.304C203.348 320.478 236.044 353.13 276.218 353.13C316.391 353.13 349.044 320.435 349.044 280.304C349.044 240.131 316.391 207.435 276.218 207.435ZM274.043 393.783C275.652 393.827 277.261 393.827 278.913 393.783C277.478 381.087 278.261 367.087 278.696 361.391C277.87 361.435 277.044 361.435 276.174 361.435C275.522 361.435 274.869 361.391 274.217 361.391C274.695 367.087 275.522 381.087 274.043 393.783ZM218.391 337.565C217.739 338.217 206.479 349.696 193.957 358.435C196.044 360.652 198.261 362.783 200.522 364.783C208.261 352.392 218 341.348 218.608 340.696L218.956 340.304L220.652 339.348C219.957 338.695 219.261 338.043 218.565 337.348L218.391 337.565ZM194.435 280.652L193.913 280.652C193 280.652 177.478 280.521 162.739 277.783C162.739 278.652 162.695 279.522 162.695 280.348C162.695 282.087 162.739 283.87 162.869 285.783C174.174 283.826 186.348 283.522 192.565 283.522C193.652 283.522 194.522 283.522 195.217 283.522C195.174 282.479 195.131 281.478 195.131 280.435L194.435 280.652ZM281.609 166.914C279.696 166.826 277.913 166.783 276.218 166.783C274.695 166.783 273.087 166.826 271.391 166.914C273.957 180.609 274.087 195.478 274.087 199.217C274.783 199.217 275.522 199.174 276.218 199.174C277.13 199.174 278 199.217 278.913 199.217C278.913 195.478 279.043 180.609 281.609 166.914ZM360.566 204.522C358.565 202.304 356.478 200.174 354.348 198.131C346.131 209.652 335.392 220.131 333 222.435C334.218 223.653 335.392 224.87 336.565 226.131C339.913 222.565 349.87 212.348 360.566 204.522ZM399.957 288.044C401.435 288.522 402.913 289 404.261 289.565C408.956 291.522 416.435 295.13 424.739 299.261C425.566 292.957 425.957 286.609 425.957 280.304C425.957 274.783 425.609 269.174 425 263.565C417.609 267.566 411 271.044 406.695 273C404.696 273.913 402.479 274.739 400.13 275.435C400.218 277.174 400.261 278.826 400.261 280.348C400.218 282.739 400.13 285.305 399.957 288.044ZM405.478 370.217C425.131 376.217 446.044 382.131 446.392 382.217L446.652 382.305C447.739 382.739 450.348 383.305 451.652 382.826C453.087 382.305 454.304 380.478 454.609 379.87L454.782 379.609C454.826 379.522 460.956 370 465.131 359.87C469.261 349.739 472.043 336.913 472.087 336.783L472.13 336.522C472.261 336.044 472.739 333.739 472.043 332.348C471.435 331.131 469.348 329.826 468.087 329.261L467.826 329.131C467.522 328.956 448.261 318.652 429.913 309.261L425.522 307.044C415.87 302.174 406.957 297.783 401.739 295.653C400.044 294.956 398.174 294.348 396.174 293.826L395.652 293.696C394.435 293.392 393.218 293.087 391.957 292.826L391.043 292.652C377.087 289.957 360.304 290.087 357.131 290.174L356.739 290.305C354.826 305.957 348.435 320.261 338.869 331.869L339.609 333.435C341.87 335.696 353.826 347.435 365.74 355.174C366.609 355.739 367.478 356.261 368.348 356.783C370.826 358.261 373.261 359.522 375.565 360.435C380.565 362.391 389.348 365.261 399.043 368.261L405.478 370.217ZM478.957 230.522C477.304 234.174 473.044 236.478 472.043 236.913C470.087 238.044 452.13 248.478 434.87 258.087C435.87 265.391 436.434 272.869 436.434 280.261C436.434 288.174 435.782 296.218 434.565 304.217C451.652 312.957 468.87 322.218 470.826 323.261C471.826 323.696 476.174 325.826 477.957 329.435C479.739 333.087 478.739 337.305 478.478 338.261C478.174 339.652 475.391 352.043 471.217 362.348C467.044 372.522 461.174 381.87 460.391 383.043C459.913 383.957 457.695 387.609 453.913 389C450.131 390.348 445.521 388.87 444.522 388.479C442.348 387.87 422.826 382.305 404.087 376.652C393.956 390.088 381.87 401.739 368.174 411.392C372.652 430.869 377.043 451.696 377.522 453.956C377.826 455 379 459.696 377.391 463.392C375.739 467.131 371.869 469.043 370.957 469.478C369.696 470.131 358.391 476 347.826 479.392C337.348 482.74 326.435 484.218 325 484.392C324 484.609 319.739 485.261 316.261 483.261C312.783 481.261 311 476.74 310.608 475.739C309.696 473.782 302.044 456.696 294.695 439.435C288.392 440.174 282.218 440.565 276.261 440.565C270.478 440.565 264.435 440.174 258.348 439.522C250.956 456.74 243.304 473.782 242.435 475.739C242.044 476.74 240.261 481.261 236.783 483.261C233.261 485.261 229.087 484.609 228.043 484.392C226.652 484.218 215.695 482.74 205.217 479.391C194.652 476 183.348 470.131 182.087 469.478C181.174 469.087 177.304 467.131 175.652 463.392C174.043 459.696 175.217 455 175.522 453.956C176 451.696 180.305 431.131 184.782 411.739C170.956 402.087 158.739 390.348 148.522 376.783C129.957 382.435 110.695 387.87 108.522 388.479C107.522 388.87 102.913 390.348 99.1302 389C95.3478 387.609 93.1301 383.957 92.6518 383.043C91.8699 381.826 86.0004 372.521 81.8262 362.348C77.6088 352.087 74.8263 339.652 74.5651 338.261C74.3047 337.305 73.304 333.087 75.0867 329.435C76.8693 325.826 81.2173 323.696 82.2172 323.261C84.1305 322.218 101.043 313.174 118 304.478C116.739 296.391 116.087 288.218 116.087 280.261C116.087 272.783 116.652 265.217 117.696 257.783C100.565 248.261 82.9567 238.043 81.0002 236.87C80.0436 236.391 75.7389 234.13 74.0868 230.479C72.4348 226.783 73.5653 222.652 73.8697 221.696C74.2174 220.304 76.8261 209.609 81.2606 199.522C85.7393 189.348 92.7392 178.739 93.522 177.565C94.0003 176.739 96.3477 173.087 100.261 171.826C101.261 171.522 102.305 171.391 103.348 171.391C106.261 171.391 108.913 172.391 109.652 172.696C111.739 173.348 129.695 179.131 147.565 185.261C156.739 172.87 167.565 161.87 179.826 152.609C174 134.478 168.391 116 167.739 113.87C167.348 112.87 165.739 108.261 167.043 104.478C168.348 100.652 172 98.3915 172.87 97.8699C174.043 97.0871 183.261 91.0438 193.391 86.6958C203.609 82.3045 215.957 79.3048 217.348 79.0004C217.87 78.8265 219.522 78.3915 221.478 78.3915C222.957 78.3915 224.609 78.6086 226.174 79.3481C229.826 81.0434 232 85.3914 232.479 86.3913C233.565 88.3045 242.957 105.218 251.957 122.043C260.131 120.783 268.304 120.131 276.348 120.131C284.522 120.131 292.869 120.826 301.218 122.131C310.218 105.261 319.696 88.3478 320.739 86.4346C321.218 85.4347 323.391 81.1308 327.043 79.3914C328.609 78.6527 330.261 78.4348 331.739 78.4348C333.74 78.4348 335.348 78.8698 335.87 79.0437C337.261 79.3481 349.609 82.3477 359.826 86.739C369.913 91.0871 379.174 97.1304 380.348 97.9132C381.261 98.4347 384.869 100.696 386.174 104.522C387.478 108.348 385.869 112.913 385.478 113.914C384.826 116.044 379.174 134.696 373.304 152.957C385.391 162.174 396.13 173.087 405.217 185.435C423.217 179.305 441.478 173.435 443.565 172.739C444.305 172.435 447 171.435 449.87 171.435C450.913 171.435 451.957 171.565 452.957 171.87C456.826 173.131 459.174 176.783 459.652 177.609C460.435 178.783 467.435 189.392 471.913 199.565C476.348 209.652 478.957 220.348 479.304 221.739C479.521 222.696 480.609 226.826 478.957 230.522Z" fill="#D0D9DC"/>
<path d="M276.478 266.739C268.348 266.739 261.74 273.348 261.74 281.522C261.74 289.652 268.348 296.261 276.478 296.261C284.609 296.261 291.261 289.652 291.261 281.522C291.261 273.348 284.653 266.739 276.478 266.739ZM276.478 300.478C266.001 300.478 257.522 291.957 257.522 281.522C257.522 271.043 266.044 262.565 276.478 262.565C286.957 262.565 295.435 271.087 295.435 281.522C295.479 291.957 286.957 300.478 276.478 300.478Z" fill="#D0D9DC"/>
<path d="M276.478 293.087C270.086 293.087 264.869 287.87 264.869 281.478C264.869 275.087 270.086 269.869 276.478 269.869C282.869 269.869 288.087 275.087 288.087 281.478C288.087 287.913 282.869 293.087 276.478 293.087Z" fill="#D0D9DC"/>
<path d="M276.478 55C151.565 55 49.9568 156.609 49.9568 281.522C49.9567 406.435 151.565 508.043 276.478 508.044C401.391 508.044 503 406.435 503 281.522C503 156.609 401.392 55 276.478 55ZM276.478 528C140.565 528 30 417.435 30 281.522C30.0001 145.609 140.565 35.0433 276.478 35.0433C412.391 35.0433 522.957 145.609 522.957 281.522C522.957 417.435 412.391 528 276.478 528Z" fill="#D0D9DC"/>
</g>
</g>
<defs>
<clipPath id="clip0_347_1667">
<rect width="603" height="281" fill="white" transform="matrix(1 1.74846e-07 1.74846e-07 -1 0 281)"/>
</clipPath>
</defs>
</svg>
