<svg width="226" height="493" viewBox="0 0 226 493" fill="none" xmlns="http://www.w3.org/2000/svg">
<mask id="mask0_347_1677" style="mask-type:luminance" maskUnits="userSpaceOnUse" x="-267" y="0" width="493" height="493">
<path d="M-267 0H226V493H-267V0Z" fill="white"/>
</mask>
<g mask="url(#mask0_347_1677)">
<path d="M-216.956 304.347L-216.87 304.652C-216.826 304.739 -214.217 315.826 -209.826 325.826C-205.435 335.826 -198.13 346.739 -198.044 346.869L-197.913 347.087C-197.565 347.695 -196.261 349.478 -194.826 349.956C-193.565 350.347 -191.13 349.783 -189.869 349.261L-189.609 349.174C-189.304 349.087 -169.913 342.826 -151 336.392L-144.478 334.131C-134.217 330.565 -124.783 327.131 -119.565 324.87C-117.913 324.13 -116.217 323.261 -114.479 322.217C-113.435 321.609 -112.391 320.913 -111.304 320.217L-110.957 320C-99.2608 312.044 -87.3913 299.652 -84.7826 296.826C-93.8264 284.956 -99.6959 270.521 -101.043 254.782L-103.566 253.956C-106.565 254 -121.957 254.391 -135.391 257.174L-136.174 257.348C-137.435 257.609 -138.696 257.913 -139.913 258.261L-140.826 258.478C-143.435 259.217 -145.87 260.044 -148.043 261.043C-152.696 263.174 -160.348 267.217 -168.783 271.826L-175.957 275.783C-193.913 285.782 -212.608 296.652 -212.913 296.826L-213.174 296.956C-214.217 297.435 -216.435 298.913 -217 300.174C-217.609 301.565 -217.13 303.739 -216.956 304.347ZM-113.739 364.522C-110.826 355.739 -108.087 347.913 -106.13 343.218C-105.565 341.826 -104.826 340.391 -104.044 338.913C-107.391 335.826 -110.566 332.565 -113.565 329.174C-114.696 329.783 -115.826 330.347 -116.913 330.826C-121.696 332.913 -129.74 335.869 -138.696 339C-131.392 348.522 -123.043 357.087 -113.739 364.522ZM-123.131 416.173L-123.217 416.435C-123.652 417.522 -124.261 420.087 -123.826 421.435C-123.348 422.87 -121.522 424.13 -120.913 424.478L-120.652 424.652C-120.565 424.696 -111.13 431 -101.087 435.347C-91.0439 439.652 -78.261 442.696 -78.1304 442.696L-77.9133 442.739C-77.2611 442.956 -75.0867 443.391 -73.6958 442.739C-72.478 442.174 -71.1305 440.086 -70.5216 438.826L-70.391 438.565C-70.2171 438.261 -59.4348 418.956 -49.6956 400.652L-47.9562 397.348C-42.7389 387.522 -38.0431 378.348 -35.7389 373.043C-35.0002 371.348 -34.3914 369.521 -33.7825 367.565L-33.6518 367.131C-33.3041 365.956 -32.9997 364.739 -32.7393 363.478C-29.565 349.391 -29.4344 331.826 -29.4344 328.565L-29.5217 328.348C-45.5655 326.522 -60.2175 319.956 -72.0438 310.13L-72.4348 310.304C-74.7823 312.565 -87.304 324.826 -95.2173 336.913C-95.7388 337.739 -96.2612 338.565 -96.7828 339.391C-98.0871 341.565 -99.2176 343.695 -100.087 345.739C-102.217 350.913 -105.435 360.174 -108.739 370.304L-111.304 378.174C-117.304 396.913 -123.043 415.869 -123.131 416.173ZM-1.04367 396.174C-5.39169 387.869 -9.17407 380.348 -11.2171 375.652C-11.7827 374.348 -12.3043 372.956 -12.7826 371.478C-15.4345 371.652 -17.8693 371.739 -20.2176 371.739C-22.7389 371.739 -25.3916 371.652 -28.1741 371.478C-28.6525 372.956 -29.174 374.348 -29.7388 375.695C-31.7827 380.391 -35.5651 387.869 -39.8699 396.174C-26.9131 397.826 -13.9563 397.826 -1.04367 396.174ZM6.78232 397L9.1306 401.435C18.7825 419.478 29.2171 438.217 29.391 438.522L29.5215 438.782C29.9998 439.826 31.3915 442.087 32.6958 442.696C34.0867 443.348 36.2611 442.913 36.9133 442.696L37.1736 442.652C37.3042 442.609 50.0871 439.609 60.1308 435.304C70.1736 431 79.6084 424.696 79.6957 424.608L79.9569 424.435C80.3911 424.174 82.3476 422.87 82.8692 421.391C83.3042 420.131 82.7827 417.696 82.2611 416.391L82.1738 416.13C82.0873 415.783 75.9566 395.521 69.6953 376.174L67.6956 370C64.3915 359.956 61.2605 350.782 59.1301 345.696C58.4347 344 57.5221 342.217 56.5214 340.434L56.3917 340.174C55.7828 339.13 55.1306 338.087 54.4352 337.044C46.5219 324.913 33.8696 312.478 31.5221 310.217H31.4781C19.5652 320.087 4.78259 326.608 -11.435 328.348L-11.4783 328.478C-11.4783 331.739 -11.3477 349.304 -8.17418 363.391C-7.86972 364.652 -7.56528 365.913 -7.21756 367.087L-7.08699 367.565C-6.52216 369.478 -5.91327 371.304 -5.17377 372.956C-2.95689 378.261 1.65234 387.304 6.78232 397ZM98.1742 339.174C88.9999 335.957 80.7829 332.956 75.9566 330.826C74.9567 330.392 73.9568 329.913 72.9561 329.391C69.9132 332.826 66.6957 336.13 63.261 339.261C63.9564 340.608 64.6086 341.913 65.1302 343.218C67.0866 347.957 69.9133 355.956 72.8697 364.87C82.2611 357.391 90.7825 348.783 98.1742 339.174ZM110.609 336.521C129.304 342.913 148.304 349 148.609 349.087L148.869 349.174C150.174 349.739 152.565 350.304 153.869 349.869C155.304 349.391 156.609 347.609 156.956 347.043L157.087 346.826C157.174 346.739 164.435 335.783 168.87 325.782C173.261 315.783 175.87 304.739 175.913 304.609L176 304.304C176.218 303.652 176.696 301.478 176.044 300.087C175.478 298.87 173.435 297.478 172.217 296.869L171.957 296.739C171.652 296.565 153.609 286.044 135.956 276.217L128.348 272C119.696 267.261 111.826 263.087 107.043 260.913C104.956 259.956 102.566 259.13 100.043 258.435L99.4786 258.261C98.2608 257.913 96.9997 257.609 95.7394 257.348C82.0432 254.305 65.7391 253.87 62.6521 253.826L60.6956 254.478C59.348 270.391 53.3912 285.044 44.1736 297C47.3479 300.348 58.7824 312.217 70.0871 319.87L70.7393 320.305C71.7391 320.957 72.739 321.609 73.7389 322.174C75.3909 323.13 77.0438 324.044 78.6085 324.739C83.8258 327 93.3479 330.478 103.696 334.043L110.609 336.521ZM103.652 252.782C105.782 253.435 107.826 254.217 109.695 255.043C114.087 257.043 120.913 260.608 128.521 264.739C129.174 259.044 129.521 253.348 129.521 247.696C129.521 241.348 129.087 234.869 128.261 228.478C119.783 232.739 112.087 236.478 107.26 238.435C106.087 238.913 104.826 239.347 103.521 239.782C103.696 242.565 103.783 245.174 103.783 247.696C103.783 249.304 103.739 250.956 103.652 252.782ZM170.87 198.869L171.13 198.739C172.434 198.174 174.521 196.869 175.087 195.652C175.783 194.261 175.392 192.087 175.174 191.435L175.13 191.174C175.087 191.043 172.305 178.217 168.174 168.087C164.044 158 157.913 148.435 157.826 148.348L157.696 148.087C157.391 147.478 156.13 145.652 154.695 145.13C154.348 145 153.913 144.957 153.435 144.957C152.174 144.957 150.652 145.304 149.739 145.652L149.478 145.739C149.13 145.826 128.435 151.695 108.826 157.652L101.783 159.826C92.1742 162.782 83.5654 165.609 78.6085 167.565C76.3916 168.434 74.0433 169.652 71.6959 171.043C70.8258 171.565 69.9565 172.087 69.0872 172.652C57.0871 180.391 44.9564 192.304 42.6954 194.565L42.1306 195.739C51.913 207.435 58.4347 221.957 60.3479 237.869C63.9132 237.913 80.6956 238.043 94.5216 235.305L95.5215 235.087C96.7826 234.826 98.0004 234.522 99.2174 234.217L99.9128 234.043C101.652 233.565 103.261 233 104.739 232.391C110.13 230.174 119.434 225.609 129.392 220.565L133.174 218.652C151.479 209.305 170.565 199.044 170.87 198.869ZM68.6522 127.347C66.7389 135.348 64.9131 142.348 63.5214 146.782C62.7827 149.043 61.8261 151.435 60.6524 153.87C64.2609 157 67.7389 160.391 71.0438 164C72.7823 163.087 74.4784 162.217 76.1737 161.565C80.7829 159.739 88.3477 157.26 96.8699 154.565C88.6954 144.304 79.2607 135.174 68.6522 127.347ZM74.1307 72.6088L74.1739 72.3476C74.5649 71 74.9135 68.5652 74.3478 67.3042C73.7389 65.9133 71.7824 64.8261 71.2176 64.5217L70.9997 64.3911C70.8699 64.3478 59.2607 58.2171 48.8261 54.8698C38.4347 51.5649 27.1741 50.0867 27.0435 50.0867L26.739 50.0435C26.0869 49.9129 23.8692 49.6517 22.5216 50.4344C21.3479 51.0866 20.1741 53.261 19.7391 54.6086L19.6526 54.8698C19.522 55.1734 11.0439 73.9564 3.17381 92.4349L0.608414 98.435C-3.60902 108.478 -7.39143 117.783 -9.21733 123.174C-9.65237 124.478 -10.0434 125.869 -10.3478 127.347L-10.4351 127.87C-10.6955 129.087 -10.9134 130.305 -11.1306 131.565L-11.2612 132.435C-13.1736 145.695 -12.0872 161.956 -11.6954 167.044C3.95654 168.696 18.3042 174.826 29.9998 184.13L32.7823 182.565C34.7829 180.304 44.7392 168.608 51.6518 156.783L51.8257 156.522C52.4779 155.391 53.0868 154.261 53.6957 153.13C55.2171 150.26 56.435 147.435 57.3042 144.783C58.8698 139.869 61.0001 131.391 63.2178 121.956L64.9996 114.391C69.5655 94.3041 74.0434 72.9133 74.1307 72.6088ZM-34.3913 98.6954C-30.6089 107.782 -27.304 116.043 -25.6087 121.13C-25.3043 122 -25.0431 122.913 -24.826 123.826C-21.739 123.696 -19.0439 123.696 -16.174 123.783C-15.9128 122.87 -15.6525 122 -15.3913 121.13C-13.696 116.043 -10.391 107.739 -6.56538 98.6521C-16.0867 97.7388 -24.8692 97.7388 -34.3913 98.6954ZM-41.6525 98.3477L-45.0431 90.3478C-52.6519 72.6088 -60.4779 55.1734 -60.6085 54.8698L-60.6958 54.6086C-61.0868 53.5214 -62.3046 51.1307 -63.5216 50.4344C-64.8259 49.6517 -67.0436 49.9129 -67.6958 50.0435L-68.0002 50.0867C-68.13 50.0867 -79.3915 51.5649 -89.7829 54.8698C-100.217 58.2171 -111.826 64.3046 -111.956 64.3911L-112.174 64.4784C-112.782 64.7388 -114.739 65.8693 -115.348 67.2609C-115.913 68.4779 -115.565 70.9568 -115.174 72.2611L-115.087 72.5647C-115 72.9133 -110.566 94.2176 -105.956 114.261L-103.913 123C-101.783 132 -99.7391 140 -98.261 144.739C-97.4349 147.347 -96.1739 150.131 -94.6957 153L-94.4786 153.391C-93.8697 154.522 -93.2608 155.608 -92.6086 156.739C-85.696 168.565 -75.7389 180.217 -73.7824 182.478L-70.6954 184.217C-59.0438 174.956 -44.826 168.782 -29.3046 167.044C-28.9128 162.087 -27.8264 145.826 -29.6956 132.478L-29.8262 131.522C-30.0001 130.26 -30.2604 129.043 -30.4783 127.87C-30.4783 127.782 -30.5216 127.696 -30.5216 127.609L-30.5649 127.391C-30.9134 125.869 -31.3044 124.435 -31.7395 123.087C-33.6086 117.783 -37.391 108.435 -41.6525 98.3477ZM-137.392 154.652C-129.043 157.26 -121.652 159.739 -117.13 161.522C-115.348 162.217 -113.522 163.131 -111.652 164.131C-108.391 160.609 -105 157.26 -101.479 154.173C-102.696 151.652 -103.74 149.13 -104.521 146.782C-105.87 142.434 -107.652 135.565 -109.565 127.739C-120 135.478 -129.348 144.522 -137.392 154.652ZM-101.261 244.478C-101.957 244.478 -103 244.521 -104.435 244.521C-110.521 244.521 -122.435 244.217 -133.565 242.348C-133.652 244.217 -133.739 246 -133.739 247.696C-133.739 248.522 -133.739 249.304 -133.696 250.13C-119.087 247.479 -103.957 247.348 -103.043 247.348H-102.522L-101.348 247.739V247.696C-101.348 246.608 -101.305 245.565 -101.261 244.478ZM39.8696 302.174C38.7392 303.435 37.5214 304.652 36.3044 305.826C39.1742 308.609 49.6521 319 57.6087 330.218C59.8264 328.131 61.9134 325.956 63.9564 323.739C53.4345 316.13 43.5655 306.044 39.8696 302.174ZM-78.5654 190.435L-78.1737 190.826L-78.1304 190.957C-77.435 190.217 -76.6955 189.522 -75.9568 188.826L-77.9998 187.652L-78.3475 187.261C-78.9132 186.609 -88.5218 175.782 -96.2172 163.522C-98.4348 165.521 -100.565 167.608 -102.609 169.783C-90.3044 178.521 -79.2176 189.783 -78.5654 190.435ZM-20.2176 320.565C19.9562 320.565 52.6525 287.869 52.6525 247.696C52.6525 207.522 19.9562 174.87 -20.2176 174.87C-60.3914 174.87 -93.0437 207.565 -93.0437 247.696C-93.0437 287.869 -60.3914 320.565 -20.2176 320.565ZM-18.0432 134.217C-19.6519 134.173 -21.2607 134.173 -22.9128 134.217C-21.4778 146.913 -22.2606 160.913 -22.6956 166.609C-21.8696 166.565 -21.0436 166.565 -20.1735 166.565C-19.5221 166.565 -18.8692 166.609 -18.217 166.609C-18.6953 160.913 -19.5222 146.913 -18.0432 134.217ZM37.6087 190.435C38.2609 189.783 49.5215 178.304 62.0432 169.565C59.9561 167.348 57.7393 165.217 55.4783 163.217C47.7389 175.608 37.9997 186.652 37.3916 187.304L37.0439 187.696L35.3477 188.652C36.0432 189.305 36.7394 189.957 37.4348 190.652L37.6087 190.435ZM61.5649 247.348H62.0873C62.9998 247.348 78.522 247.479 93.2606 250.217C93.2606 249.348 93.3046 248.478 93.3046 247.652C93.3046 245.913 93.2606 244.13 93.1308 242.217C81.8261 244.174 69.6521 244.478 63.4349 244.478C62.3477 244.478 61.4784 244.478 60.783 244.478C60.8262 245.521 60.8695 246.522 60.8695 247.565L61.5649 247.348ZM-25.6087 361.086C-23.6955 361.174 -21.9129 361.217 -20.2176 361.217C-18.6953 361.217 -17.0866 361.174 -15.3913 361.086C-17.9567 347.391 -18.0872 332.522 -18.0872 328.783C-18.7827 328.783 -19.5222 328.826 -20.2176 328.826C-21.1301 328.826 -22.0002 328.783 -22.9128 328.783C-22.9128 332.522 -23.0433 347.391 -25.6087 361.086ZM-104.565 323.478C-102.565 325.696 -100.478 327.826 -98.3475 329.869C-90.1306 318.348 -79.3915 307.869 -76.9999 305.565C-78.2177 304.347 -79.3915 303.13 -80.5652 301.869C-83.9134 305.435 -93.8697 315.652 -104.565 323.478ZM-143.957 239.956C-145.435 239.478 -146.913 239 -148.26 238.435C-152.956 236.478 -160.434 232.87 -168.739 228.739C-169.566 235.043 -169.957 241.391 -169.957 247.696C-169.957 253.217 -169.609 258.826 -169 264.435C-161.609 260.434 -155 256.957 -150.695 255C-148.695 254.087 -146.479 253.261 -144.13 252.565C-144.218 250.826 -144.261 249.174 -144.261 247.652C-144.218 245.261 -144.13 242.695 -143.957 239.956ZM-149.478 157.783C-169.131 151.783 -190.044 145.869 -190.392 145.783L-190.652 145.695C-191.739 145.261 -194.348 144.695 -195.652 145.174C-197.087 145.695 -198.304 147.522 -198.609 148.13L-198.782 148.391C-198.826 148.478 -204.956 158 -209.13 168.13C-213.261 178.261 -216.043 191.087 -216.087 191.217L-216.13 191.478C-216.261 191.956 -216.739 194.261 -216.043 195.652C-215.435 196.869 -213.348 198.174 -212.087 198.739L-211.826 198.869C-211.522 199.044 -192.261 209.348 -173.913 218.739L-169.521 220.956C-159.87 225.826 -150.956 230.217 -145.739 232.347C-144.044 233.044 -142.174 233.652 -140.174 234.174L-139.652 234.304C-138.435 234.608 -137.218 234.913 -135.957 235.174L-135.043 235.348C-121.087 238.043 -104.304 237.913 -101.131 237.826L-100.739 237.695C-98.8258 222.043 -92.4348 207.739 -82.8694 196.131L-83.6089 194.565C-85.8698 192.304 -97.8259 180.565 -109.74 172.826C-110.609 172.261 -111.478 171.739 -112.348 171.217C-114.826 169.739 -117.261 168.478 -119.565 167.565C-124.565 165.609 -133.348 162.739 -143.043 159.739L-149.478 157.783ZM-222.956 297.478C-221.304 293.826 -217.044 291.522 -216.043 291.087C-214.087 289.957 -196.13 279.522 -178.87 269.913C-179.87 262.609 -180.434 255.131 -180.434 247.739C-180.434 239.826 -179.782 231.783 -178.565 223.783C-195.652 215.043 -212.87 205.783 -214.826 204.739C-215.826 204.304 -220.174 202.174 -221.957 198.565C-223.739 194.913 -222.739 190.695 -222.478 189.739C-222.174 188.348 -219.391 175.957 -215.217 165.652C-211.044 155.479 -205.174 146.13 -204.391 144.957C-203.913 144.043 -201.695 140.391 -197.913 139C-194.131 137.652 -189.521 139.13 -188.522 139.521C-186.348 140.13 -166.826 145.695 -148.087 151.348C-137.956 137.913 -125.87 126.261 -112.174 116.608C-116.652 97.1307 -121.043 76.3039 -121.522 74.0437C-121.826 72.9998 -123 68.3041 -121.391 64.6082C-119.739 60.8691 -115.869 58.9566 -114.957 58.5216C-113.696 57.8694 -102.391 52 -91.8259 48.6085C-81.348 45.2604 -70.435 43.7822 -69.0001 43.6083C-68.0002 43.3912 -63.7387 42.7391 -60.2608 44.7388C-56.7829 46.7394 -55.0002 51.2605 -54.6085 52.2611C-53.6959 54.2176 -46.0438 71.3045 -38.6953 88.5652C-32.3916 87.8257 -26.2176 87.4347 -20.2608 87.4347C-14.4779 87.4347 -8.43456 87.8257 -2.34796 88.4779C5.04378 71.2604 12.6959 54.2176 13.5651 52.2611C13.9561 51.2605 15.7387 46.7394 19.2175 44.7388C22.7387 42.7391 26.9129 43.3912 27.9568 43.6083C29.3477 43.7822 40.3047 45.2604 50.7825 48.6085C61.3478 52 72.6525 57.8694 73.9128 58.5216C74.8261 58.9126 78.6958 60.8691 80.3479 64.6082C81.9567 68.3041 80.7829 72.9998 80.4785 74.0437C80.0002 76.3039 75.6954 96.8695 71.2176 116.261C85.0436 125.913 97.2609 137.652 107.478 151.217C126.043 145.565 145.305 140.13 147.478 139.521C148.478 139.13 153.087 137.652 156.87 139C160.652 140.391 162.87 144.043 163.348 144.957C164.13 146.174 170 155.479 174.174 165.652C178.391 175.913 181.174 188.348 181.435 189.739C181.695 190.695 182.696 194.913 180.913 198.565C179.131 202.174 174.783 204.304 173.783 204.739C171.87 205.783 154.957 214.826 138 223.522C139.261 231.609 139.913 239.782 139.913 247.739C139.913 255.217 139.348 262.783 138.304 270.217C155.435 279.739 173.043 289.957 175 291.13C175.956 291.609 180.261 293.87 181.913 297.521C183.565 301.217 182.435 305.348 182.13 306.304C181.783 307.696 179.174 318.391 174.739 328.478C170.261 338.652 163.261 349.261 162.478 350.435C162 351.261 159.652 354.913 155.739 356.174C154.739 356.478 153.696 356.609 152.652 356.609C149.739 356.609 147.087 355.609 146.348 355.304C144.261 354.652 126.305 348.869 108.435 342.739C99.2606 355.13 88.435 366.13 76.1737 375.391C81.9999 393.522 87.609 412 88.2612 414.13C88.6521 415.13 90.2609 419.739 88.9566 423.522C87.6523 427.348 83.9997 429.609 83.1304 430.13C81.9567 430.913 72.739 436.956 62.6088 441.304C52.3913 445.696 40.0435 448.695 38.6518 449C38.1302 449.174 36.4782 449.609 34.5217 449.609C33.0435 449.609 31.3915 449.391 29.826 448.652C26.1742 446.957 23.9998 442.609 23.5215 441.609C22.4351 439.695 13.0436 422.783 4.04305 405.957C-4.13063 407.217 -12.3043 407.869 -20.3482 407.869C-28.5219 407.869 -36.8694 407.174 -45.2178 405.87C-54.2175 422.739 -63.6955 439.652 -64.7394 441.565C-65.2177 442.565 -67.3913 446.869 -71.0431 448.609C-72.6086 449.347 -74.2607 449.565 -75.7389 449.565C-77.7395 449.565 -79.3482 449.13 -79.8698 448.956C-81.2606 448.652 -93.6085 445.652 -103.826 441.261C-113.913 436.913 -123.174 430.87 -124.348 430.087C-125.261 429.565 -128.869 427.304 -130.174 423.478C-131.478 419.652 -129.869 415.087 -129.478 414.086C-128.826 411.956 -123.174 393.305 -117.304 375.043C-129.391 365.826 -140.13 354.913 -149.217 342.566C-167.217 348.695 -185.478 354.565 -187.565 355.261C-188.304 355.565 -191 356.565 -193.87 356.565C-194.913 356.565 -195.957 356.435 -196.956 356.13C-200.826 354.869 -203.174 351.217 -203.652 350.391C-204.435 349.217 -211.435 338.608 -215.913 328.435C-220.348 318.348 -222.957 307.652 -223.304 306.261C-223.521 305.304 -224.609 301.174 -222.956 297.478Z" fill="#0182B4" fill-opacity="0.7"/>
<path d="M-20.478 473C104.435 473 206.043 371.391 206.043 246.478C206.043 121.565 104.435 19.9565 -20.478 19.9565C-145.391 19.9565 -247 121.565 -247 246.478C-247 371.391 -145.391 473 -20.478 473ZM-20.478 0C115.435 0 226 110.565 226 246.478C226 382.391 115.435 492.957 -20.478 492.957C-156.391 492.957 -266.957 382.391 -266.957 246.478C-266.957 110.565 -156.391 0 -20.478 0Z" fill="#0182B4" fill-opacity="0.7"/>
</g>
</svg>
