<svg width="226" height="493" viewBox="0 0 226 493" fill="none" xmlns="http://www.w3.org/2000/svg">
<mask id="mask0_347_1714" style="mask-type:luminance" maskUnits="userSpaceOnUse" x="-267" y="0" width="493" height="493">
<path d="M-267 493L-267 0L226 2.15497e-05L226 493L-267 493Z" fill="white"/>
</mask>
<g mask="url(#mask0_347_1714)">
<path d="M37.3474 442.956L37.6518 442.87C37.7391 442.826 48.826 440.217 58.8264 435.826C68.8259 431.435 79.7388 424.13 79.8694 424.044L80.0866 423.913C80.6955 423.565 82.4781 422.261 82.9564 420.826C83.3474 419.565 82.7826 417.13 82.261 415.869L82.1736 415.609C82.0871 415.304 75.8259 395.913 69.3916 377L67.1306 370.478C63.5654 360.217 60.1307 350.783 57.8697 345.565C57.1302 343.913 56.261 342.217 55.217 340.479C54.6089 339.435 53.9127 338.391 53.2172 337.304L53.0001 336.957C45.0436 325.261 32.6517 313.391 29.8259 310.783C17.9563 319.826 3.52138 325.696 -12.2179 327.043L-13.0439 329.566C-12.9998 332.565 -12.6089 347.957 -9.82635 361.391L-9.6525 362.174C-9.3913 363.435 -9.08685 364.696 -8.73913 365.913L-8.52203 366.826C-7.78253 369.435 -6.95651 371.87 -5.95663 374.043C-3.82628 378.696 0.217316 386.348 4.82571 394.783L8.78278 401.957C18.7823 419.913 29.652 438.608 29.8259 438.913L29.9564 439.174C30.4348 440.217 31.913 442.435 33.174 443C34.5649 443.609 36.7393 443.13 37.3474 442.956ZM97.522 339.739C88.7394 336.826 80.9126 334.087 76.2176 332.13C74.826 331.565 73.3911 330.826 71.9129 330.044C68.8259 333.391 65.5651 336.566 62.1737 339.565C62.7826 340.696 63.3474 341.826 63.8257 342.913C65.9128 347.696 68.8692 355.74 72.0002 364.696C81.5215 357.392 90.087 349.043 97.522 339.739ZM149.173 349.131L149.435 349.217C150.522 349.652 153.087 350.261 154.435 349.826C155.87 349.348 157.13 347.522 157.478 346.913L157.652 346.653C157.696 346.565 164 337.13 168.347 327.087C172.652 317.044 175.696 304.261 175.696 304.13L175.739 303.913C175.956 303.261 176.391 301.087 175.739 299.696C175.174 298.478 173.086 297.13 171.826 296.522L171.565 296.391C171.261 296.217 151.956 285.435 133.652 275.696L130.348 273.956C120.522 268.739 111.348 264.043 106.043 261.739C104.348 261 102.521 260.391 100.565 259.782L100.131 259.652C98.956 259.304 97.7391 259 96.478 258.739C82.3908 255.565 64.8256 255.434 61.5648 255.434L61.3477 255.522C59.5218 271.565 52.9561 286.218 43.1303 298.044L43.3042 298.435C45.5651 300.782 57.8256 313.304 69.9131 321.217C70.7392 321.739 71.5652 322.261 72.3912 322.783C74.5648 324.087 76.6951 325.218 78.739 326.087C83.913 328.217 93.1739 331.435 103.304 334.739L111.174 337.304C129.913 343.304 148.869 349.043 149.173 349.131ZM129.174 227.044C120.869 231.392 113.348 235.174 108.652 237.217C107.348 237.783 105.956 238.304 104.478 238.783C104.652 241.435 104.739 243.869 104.739 246.218C104.739 248.739 104.652 251.392 104.478 254.174C105.956 254.652 107.348 255.174 108.695 255.739C113.391 257.783 120.869 261.565 129.174 265.87C130.826 252.913 130.826 239.956 129.174 227.044ZM130 219.218L134.435 216.869C152.478 207.218 171.217 196.783 171.522 196.609L171.782 196.478C172.826 196 175.087 194.609 175.696 193.304C176.348 191.913 175.913 189.739 175.696 189.087L175.652 188.826C175.609 188.696 172.609 175.913 168.304 165.869C164 155.826 157.696 146.392 157.608 146.304L157.435 146.043C157.174 145.609 155.87 143.652 154.391 143.131C153.131 142.696 150.696 143.217 149.391 143.739L149.13 143.826C148.783 143.913 128.521 150.043 109.174 156.305L103 158.304C92.956 161.609 83.7824 164.74 78.6957 166.87C76.9996 167.565 75.217 168.478 73.4344 169.479L73.174 169.608C72.13 170.217 71.0869 170.869 70.0437 171.565C57.913 179.478 45.4778 192.13 43.2169 194.478L43.2169 194.522C53.0867 206.435 59.6083 221.217 61.3477 237.435L61.4783 237.478C64.7391 237.478 82.3043 237.348 96.3915 234.174C97.6517 233.87 98.9128 233.565 100.087 233.218L100.565 233.087C102.478 232.522 104.304 231.913 105.956 231.174C111.261 228.957 120.304 224.348 130 219.218ZM72.1741 127.826C68.9565 137 65.9561 145.217 63.8257 150.043C63.3915 151.043 62.9132 152.043 62.3908 153.044C65.8263 156.087 69.1304 159.304 72.2606 162.739C73.6082 162.044 74.9125 161.391 76.2176 160.87C80.9567 158.913 88.9565 156.087 97.8697 153.13C90.3914 143.739 81.7827 135.218 72.1741 127.826ZM69.5214 115.391C75.9132 96.6958 81.9998 77.6957 82.0872 77.3912L82.1736 77.1309C82.7393 75.8257 83.3041 73.435 82.8691 72.1307C82.3908 70.6957 80.609 69.3914 80.0433 69.0437L79.8262 68.9131C79.7389 68.8257 68.7827 61.5654 58.7823 57.1301C48.7827 52.7388 37.7392 50.1301 37.6086 50.0869L37.3041 50.0003C36.652 49.7824 34.4784 49.3041 33.0867 49.9563C31.8697 50.5219 30.478 52.5649 29.8691 53.7827L29.7394 54.0431C29.5647 54.3476 19.0435 72.391 9.21701 90.0435L4.99957 97.6524C0.260572 106.304 -3.9128 114.174 -6.08722 118.957C-7.04384 121.044 -7.86985 123.434 -8.56527 125.957L-8.73912 126.521C-9.08684 127.739 -9.39128 129 -9.65248 130.261C-12.6954 143.957 -13.1304 160.261 -13.1737 163.348L-12.5215 165.304C3.39079 166.652 18.0437 172.609 29.9997 181.826C33.3479 178.652 45.2174 167.218 52.8696 155.913L53.3046 155.261C53.9568 154.261 54.6089 153.261 55.1738 152.261C56.1304 150.609 57.0437 148.956 57.7392 147.392C60.0001 142.174 63.478 132.652 67.0433 122.304L69.5214 115.391ZM-14.2176 122.348C-13.5655 120.218 -12.7827 118.174 -11.9567 116.305C-9.95693 111.913 -6.39165 105.087 -2.26074 97.4785C-7.95636 96.8264 -13.652 96.4786 -19.3044 96.4786C-25.6521 96.4786 -32.1305 96.9129 -38.5216 97.7389C-34.2609 106.217 -30.5217 113.913 -28.5652 118.74C-28.0869 119.913 -27.6527 121.174 -27.2177 122.479C-24.4352 122.304 -21.8265 122.217 -19.3044 122.217C-17.6956 122.217 -16.0435 122.261 -14.2176 122.348ZM-68.1309 55.1303L-68.2607 54.8699C-68.8264 53.5656 -70.1307 51.4785 -71.3477 50.9129C-72.7393 50.2175 -74.913 50.6084 -75.5651 50.8263L-75.8263 50.8696C-75.9569 50.9129 -88.7831 53.6954 -98.9132 57.8263C-109 61.9564 -118.565 68.0871 -118.652 68.1736L-118.913 68.3042C-119.522 68.6086 -121.348 69.8697 -121.87 71.3046C-122 71.6523 -122.043 72.0874 -122.043 72.5649C-122.043 73.826 -121.696 75.3482 -121.348 76.2607L-121.261 76.5219C-121.174 76.8697 -115.305 97.565 -109.348 117.174L-107.174 124.217C-104.218 133.826 -101.391 142.435 -99.4348 147.392C-98.5655 149.608 -97.3477 151.957 -95.9569 154.304C-95.4353 155.174 -94.9129 156.043 -94.3481 156.913C-86.6086 168.913 -74.6958 181.044 -72.4349 183.305L-71.2612 183.869C-59.5655 174.087 -45.0432 167.565 -29.1309 165.652C-29.0868 162.087 -28.957 145.304 -31.6955 131.478L-31.9134 130.479C-32.1738 129.217 -32.4782 128 -32.7827 126.783L-32.9565 126.087C-33.4348 124.348 -34.0005 122.739 -34.6086 121.261C-36.8263 115.87 -41.3914 106.566 -46.4348 96.6084L-48.3481 92.826C-57.6955 74.5214 -67.9563 55.4348 -68.1309 55.1303ZM-139.653 157.348C-131.652 159.261 -124.652 161.087 -120.218 162.479C-117.957 163.217 -115.565 164.174 -113.13 165.348C-110 161.739 -106.609 158.261 -103 154.956C-103.913 153.218 -104.783 151.522 -105.435 149.826C-107.261 145.217 -109.74 137.652 -112.435 129.13C-122.696 137.305 -131.826 146.739 -139.653 157.348ZM-194.391 151.869L-194.652 151.826C-196 151.435 -198.435 151.087 -199.696 151.652C-201.087 152.261 -202.174 154.218 -202.478 154.782L-202.609 155C-202.652 155.13 -208.783 166.739 -212.13 177.174C-215.435 187.565 -216.913 198.826 -216.913 198.957L-216.957 199.261C-217.087 199.913 -217.348 202.131 -216.566 203.478C-215.913 204.652 -213.739 205.826 -212.391 206.261L-212.13 206.347C-211.827 206.478 -193.044 214.956 -174.565 222.826L-168.565 225.392C-158.522 229.609 -149.217 233.391 -143.826 235.217C-142.522 235.652 -141.131 236.043 -139.653 236.348L-139.13 236.435C-137.913 236.696 -136.695 236.913 -135.435 237.131L-134.565 237.261C-121.305 239.174 -105.044 238.087 -99.9564 237.695C-98.3043 222.043 -92.1737 207.696 -82.8695 196L-84.435 193.218C-86.696 191.217 -98.3917 181.261 -110.217 174.348L-110.478 174.174C-111.609 173.522 -112.739 172.913 -113.87 172.304C-116.74 170.783 -119.565 169.565 -122.217 168.696C-127.131 167.13 -135.609 165 -145.044 162.782L-152.609 161C-172.696 156.434 -194.087 151.957 -194.391 151.869ZM-168.305 260.391C-159.218 256.609 -150.957 253.304 -145.87 251.609C-145 251.304 -144.087 251.043 -143.174 250.826C-143.304 247.739 -143.304 245.044 -143.217 242.174C-144.13 241.913 -145 241.652 -145.87 241.391C-150.957 239.696 -159.261 236.391 -168.348 232.565C-169.261 242.087 -169.261 250.869 -168.305 260.391ZM-168.652 267.652L-176.652 271.043C-194.391 278.652 -211.827 286.478 -212.13 286.608L-212.391 286.696C-213.479 287.087 -215.869 288.305 -216.566 289.522C-217.348 290.826 -217.087 293.044 -216.957 293.696L-216.913 294C-216.913 294.13 -215.435 305.391 -212.13 315.783C-208.783 326.217 -202.695 337.826 -202.609 337.956L-202.522 338.174C-202.261 338.782 -201.131 340.739 -199.739 341.348C-198.522 341.913 -196.043 341.565 -194.739 341.174L-194.435 341.087C-194.087 341 -172.782 336.566 -152.739 331.956L-144 329.913C-135 327.783 -127 325.739 -122.261 324.261C-119.653 323.435 -116.869 322.174 -114 320.696L-113.609 320.479C-112.478 319.87 -111.392 319.261 -110.261 318.609C-98.4349 311.696 -86.7825 301.739 -84.5216 299.782L-82.783 296.695C-92.0439 285.044 -98.2178 270.826 -99.9564 255.305C-104.913 254.913 -121.174 253.826 -134.522 255.696L-135.478 255.826C-136.74 256 -137.957 256.26 -139.13 256.478C-139.218 256.478 -139.304 256.522 -139.391 256.522L-139.609 256.565C-141.131 256.913 -142.565 257.304 -143.913 257.739C-149.217 259.609 -158.565 263.391 -168.652 267.652ZM-112.348 363.392C-109.74 355.043 -107.261 347.652 -105.478 343.13C-104.783 341.348 -103.869 339.522 -102.869 337.652C-106.392 334.391 -109.74 331 -112.827 327.479C-115.348 328.696 -117.87 329.74 -120.218 330.521C-124.566 331.87 -131.435 333.652 -139.261 335.565C-131.522 346 -122.478 355.348 -112.348 363.392ZM-22.5219 327.261C-22.5219 327.957 -22.4787 329 -22.4787 330.435C-22.4787 336.521 -22.7831 348.435 -24.6523 359.565C-22.7831 359.652 -21.0005 359.739 -19.3044 359.739C-18.4783 359.739 -17.6956 359.739 -16.8696 359.696C-19.5215 345.087 -19.6521 329.957 -19.6521 329.043L-19.6521 328.522L-19.2611 327.348L-19.3044 327.348C-20.3916 327.348 -21.4347 327.305 -22.5219 327.261ZM35.1738 186.13C36.4349 187.261 37.6518 188.479 38.8256 189.696C41.6089 186.826 52.0003 176.348 63.2176 168.391C61.1305 166.174 58.9561 164.087 56.7393 162.044C49.1304 172.566 39.0435 182.435 35.1738 186.13ZM-76.565 304.565L-76.174 304.174L-76.0434 304.13C-76.7829 303.435 -77.4784 302.696 -78.1738 301.957L-79.3483 304L-79.7393 304.348C-80.3915 304.913 -91.2179 314.522 -103.478 322.217C-101.479 324.435 -99.3915 326.565 -97.2171 328.609C-88.4786 316.304 -77.2172 305.218 -76.565 304.565ZM53.565 246.218C53.565 206.044 20.8694 173.347 -19.3044 173.347C-59.4781 173.347 -92.1304 206.044 -92.1304 246.218C-92.1304 286.391 -59.4349 319.044 -19.3044 319.044C20.8694 319.044 53.565 286.391 53.565 246.218ZM-132.783 244.043C-132.827 245.652 -132.827 247.261 -132.783 248.913C-120.087 247.478 -106.087 248.261 -100.391 248.696C-100.435 247.87 -100.435 247.044 -100.435 246.173C-100.435 245.522 -100.391 244.869 -100.391 244.217C-106.087 244.695 -120.087 245.522 -132.783 244.043ZM-76.565 188.391C-77.2172 187.739 -88.6957 176.479 -97.435 163.957C-99.6519 166.044 -101.783 168.261 -103.783 170.522C-91.3917 178.261 -80.3482 188 -79.696 188.608L-79.3043 188.956L-78.3476 190.652C-77.6955 189.957 -77.0433 189.261 -76.3479 188.565L-76.565 188.391ZM-19.6521 164.435L-19.6521 163.913C-19.6521 163 -19.5215 147.478 -16.783 132.739C-17.6523 132.739 -18.5216 132.695 -19.3476 132.695C-21.087 132.695 -22.8696 132.739 -24.7829 132.869C-22.8264 144.174 -22.5219 156.348 -22.5219 162.565C-22.5219 163.652 -22.5219 164.522 -22.5219 165.217C-21.4788 165.174 -20.4781 165.131 -19.435 165.131L-19.6521 164.435ZM94.0864 251.609C94.1738 249.696 94.2171 247.913 94.2171 246.218C94.2171 244.695 94.1738 243.087 94.0864 241.391C80.391 243.957 65.5218 244.087 61.7827 244.087C61.7827 244.783 61.826 245.522 61.826 246.218C61.826 247.13 61.7827 248 61.7827 248.913C65.5218 248.913 80.391 249.043 94.0864 251.609ZM56.4781 330.566C58.6958 328.565 60.8261 326.478 62.8691 324.348C51.3481 316.131 40.8694 305.391 38.5652 303C37.3474 304.218 36.1304 305.391 34.8693 306.565C38.4346 309.913 48.6521 319.87 56.4781 330.566ZM-27.0438 369.957C-27.5221 371.435 -28.0004 372.913 -28.5653 374.26C-30.5217 378.956 -34.1303 386.434 -38.2612 394.739C-31.9567 395.566 -25.6089 395.957 -19.3044 395.957C-13.7826 395.957 -8.17432 395.609 -2.56522 395C-6.56554 387.609 -10.0435 381 -12 376.695C-12.9133 374.696 -13.7393 372.479 -14.4348 370.13C-16.1741 370.218 -17.8262 370.261 -19.3476 370.261C-21.7392 370.218 -24.3045 370.13 -27.0438 369.957ZM-109.217 375.478C-115.217 395.131 -121.131 416.044 -121.217 416.392L-121.305 416.652C-121.739 417.739 -122.305 420.348 -121.826 421.652C-121.305 423.087 -119.478 424.304 -118.87 424.609L-118.609 424.782C-118.522 424.826 -109 430.956 -98.87 435.13C-88.739 439.261 -75.9128 442.043 -75.7831 442.087L-75.5219 442.13C-75.0436 442.261 -72.7394 442.739 -71.3477 442.043C-70.1307 441.435 -68.8264 439.348 -68.2607 438.087L-68.131 437.826C-67.9563 437.522 -57.6522 418.261 -48.2608 399.913L-46.0439 395.521C-41.1743 385.87 -36.783 376.956 -34.6526 371.739C-33.9564 370.044 -33.3483 368.174 -32.826 366.174L-32.6962 365.652C-32.3917 364.435 -32.0873 363.218 -31.8261 361.957L-31.6522 361.043C-28.957 347.087 -29.0868 330.304 -29.1742 327.131L-29.3047 326.739C-44.9567 324.826 -59.261 318.435 -70.8694 308.869L-72.4349 309.609C-74.6958 311.87 -86.4348 323.826 -94.1742 335.74C-94.7391 336.609 -95.2606 337.478 -95.783 338.348C-97.2612 340.826 -98.5223 343.261 -99.4348 345.565C-101.391 350.565 -104.261 359.348 -107.261 369.043L-109.217 375.478ZM30.478 448.956C26.8262 447.304 24.522 443.044 24.087 442.043C22.9565 440.087 12.5219 422.13 2.91328 404.87C-4.39111 405.87 -11.8694 406.434 -19.2611 406.434C-27.1744 406.434 -35.2175 405.782 -43.2173 404.565C-51.9566 421.652 -61.2175 438.87 -62.2607 440.826C-62.6957 441.826 -64.8261 446.174 -68.4346 447.957C-72.0872 449.739 -76.3046 448.739 -77.2612 448.478C-78.6521 448.174 -91.0432 445.391 -101.348 441.217C-111.521 437.044 -120.87 431.174 -122.043 430.391C-122.957 429.913 -126.609 427.695 -128 423.913C-129.348 420.131 -127.87 415.521 -127.479 414.522C-126.87 412.348 -121.305 392.826 -115.652 374.087C-129.087 363.956 -140.739 351.87 -150.392 338.174C-169.869 342.652 -190.696 347.043 -192.956 347.522C-194 347.826 -198.696 349 -202.392 347.391C-206.131 345.739 -208.043 341.869 -208.478 340.957C-209.131 339.696 -215 328.391 -218.391 317.826C-221.74 307.348 -223.218 296.435 -223.392 295C-223.609 294 -224.261 289.739 -222.261 286.261C-220.261 282.783 -215.74 281 -214.739 280.608C-212.782 279.696 -195.696 272.044 -178.435 264.695C-179.174 258.392 -179.565 252.218 -179.565 246.261C-179.565 240.478 -179.174 234.435 -178.522 228.348C-195.74 220.956 -212.782 213.304 -214.739 212.435C-215.74 212.044 -220.261 210.261 -222.261 206.783C-224.261 203.261 -223.609 199.087 -223.392 198.043C-223.218 196.652 -221.74 185.695 -218.391 175.217C-215 164.652 -209.131 153.348 -208.478 152.087C-208.087 151.174 -206.131 147.304 -202.392 145.652C-198.696 144.043 -194 145.217 -192.956 145.522C-190.696 146 -170.131 150.305 -150.739 154.782C-141.087 140.956 -129.348 128.739 -115.783 118.522C-121.435 99.9566 -126.87 80.6953 -127.479 78.5217C-127.87 77.5218 -129.348 72.9134 -128 69.1302C-126.609 65.3478 -122.957 63.1301 -122.043 62.6518C-120.826 61.8699 -111.521 56.0004 -101.348 51.8262C-91.0873 47.6088 -78.6521 44.8263 -77.2612 44.5651C-76.3046 44.3047 -72.0872 43.304 -68.4346 45.0867C-64.826 46.8693 -62.6957 51.2173 -62.2606 52.2172C-61.2175 54.1304 -52.1737 71.0434 -43.4785 87.9997C-35.3913 86.7394 -27.2176 86.0873 -19.2611 86.0873C-11.7828 86.0873 -4.21723 86.6521 3.21695 87.6961C12.739 70.5651 22.9565 52.9567 24.1302 51.0002C24.6086 50.0436 26.8695 45.7388 30.5213 44.0868C34.2172 42.4347 38.3481 43.5652 39.3039 43.8697C40.6956 44.2174 51.3914 46.826 61.4783 51.2606C71.6517 55.7392 82.261 62.7392 83.4347 63.5219C84.2607 64.0002 87.9125 66.3477 89.1736 70.2607C89.4781 71.2605 89.6086 72.3045 89.6086 73.3476C89.6086 76.2608 88.6088 78.9127 88.3043 79.6522C87.6522 81.7393 81.8692 99.6954 75.7393 117.565C88.1305 126.739 99.1299 137.565 108.391 149.826C126.522 144 145 138.391 147.13 137.739C148.13 137.348 152.739 135.739 156.522 137.043C160.348 138.348 162.609 142 163.13 142.87C163.913 144.043 169.956 153.261 174.304 163.391C178.696 173.609 181.695 185.957 182 187.348C182.174 187.87 182.609 189.522 182.609 191.478C182.609 192.956 182.391 194.609 181.652 196.174C179.957 199.826 175.609 202 174.609 202.479C172.695 203.565 155.782 212.956 138.957 221.957C140.217 230.131 140.869 238.304 140.869 246.348C140.869 254.522 140.174 262.869 138.869 271.218C155.739 280.218 172.652 289.695 174.565 290.739C175.565 291.218 179.869 293.391 181.609 297.043C182.347 298.609 182.565 300.261 182.565 301.739C182.565 303.739 182.13 305.348 181.956 305.87C181.652 307.261 178.652 319.608 174.261 329.826C169.913 339.913 163.87 349.174 163.087 350.348C162.565 351.261 160.304 354.869 156.478 356.174C152.652 357.478 148.087 355.869 147.086 355.478C144.956 354.826 126.304 349.174 108.043 343.304C98.8263 355.391 87.9126 366.13 75.5655 375.217C81.6954 393.217 87.5648 411.478 88.2611 413.565C88.5647 414.304 89.5654 417 89.5654 419.87C89.5654 420.913 89.4348 421.957 89.1303 422.956C87.8693 426.826 84.2175 429.174 83.3915 429.652C82.2169 430.435 71.6084 437.435 61.435 441.913C51.3481 446.348 40.6523 448.957 39.2606 449.304C38.304 449.521 34.1739 450.609 30.478 448.956Z" fill="#D0D9DC"/>
<path d="M206 246.478C206 121.565 104.391 19.9567 -20.522 19.9567C-145.435 19.9567 -247.043 121.565 -247.043 246.478C-247.043 371.391 -145.435 473 -20.5221 473C104.391 473 206 371.391 206 246.478ZM-267 246.478C-267 110.565 -156.435 4.83295e-06 -20.522 1.07739e-05C115.391 1.67148e-05 225.957 110.565 225.957 246.478C225.957 382.391 115.391 492.957 -20.5221 492.957C-156.435 492.957 -267 382.391 -267 246.478Z" fill="#D0D9DC"/>
</g>
</svg>
